<?xml version="1.0" encoding="UTF-8" standalone="no"?>
<svg
   xmlns:dc="http://purl.org/dc/elements/1.1/"
   xmlns:cc="http://creativecommons.org/ns#"
   xmlns:rdf="http://www.w3.org/1999/02/22-rdf-syntax-ns#"
   xmlns:svg="http://www.w3.org/2000/svg"
   xmlns="http://www.w3.org/2000/svg"
   xmlns:sodipodi="http://sodipodi.sourceforge.net/DTD/sodipodi-0.dtd"
   xmlns:inkscape="http://www.inkscape.org/namespaces/inkscape"
   height="3.0808582in"
   width="6.1621451in"
   id="svg3991"
   xml:space="preserve"
   enable-background="new 0 0 90 90"
   viewBox="0 0 554.59306 277.27723"
   y="0px"
   x="0px"
   version="1.1"
   inkscape:version="0.48.4 r9939"
   sodipodi:docname="letter.svg"><sodipodi:namedview
     pagecolor="#ffffff"
     bordercolor="#666666"
     borderopacity="1"
     objecttolerance="10"
     gridtolerance="10"
     guidetolerance="10"
     inkscape:pageopacity="0"
     inkscape:pageshadow="2"
     inkscape:window-width="1920"
     inkscape:window-height="1080"
     id="namedview109"
     showgrid="false"
     inkscape:zoom="0.8185507"
     inkscape:cx="171.79318"
     inkscape:cy="116.43336"
     inkscape:window-x="0"
     inkscape:window-y="0"
     inkscape:window-maximized="0"
     inkscape:current-layer="g3993" /><metadata
     id="metadata4019"><rdf:RDF><cc:Work
         rdf:about=""><dc:format>image/svg+xml</dc:format><dc:type
           rdf:resource="http://purl.org/dc/dcmitype/StillImage" /><dc:title /></cc:Work></rdf:RDF></metadata><defs
     id="defs4017" /><g
     transform="translate(112.60124,177.21762)"
     id="g3993"><rect
       style="fill:#ffffff;fill-opacity:1;stroke:none"
       id="rect3858"
       width="554.63885"
       height="276.09775"
       x="0"
       y="-0.042160828"
       transform="translate(-112.60124,-177.21763)"
       ry="0" /><path
       id="path4001"
       d="m -112.60124,-177.21764 0,277.27724 554.59307,0 0,-277.27724 z m 550.91449,273.598671 -547.23593,0 0,-269.920101 547.23593,0 z"
       style="fill:#000000;fill-opacity:1" /><path
       id="path4009"
       d="m 422.50868,-157.73451 -50.04819,0 0,60.322487 50.04819,0 z m -1.50703,58.81546 -47.03413,0 0,-57.30843 47.03325,0 z" /><g
       id="text4821"
       style="font-style:normal;font-weight:normal;font-size:13.20182705px;line-height:125%;font-family:Sans;letter-spacing:0px;word-spacing:0px;fill:#000000;fill-opacity:1;stroke:none;stroke-width:1px;stroke-linecap:butt;stroke-linejoin:miter;stroke-opacity:1"><path
         id="path5614"
         style="font-style:normal;font-variant:normal;font-weight:normal;font-stretch:normal;font-family:'Open Sans';-inkscape-font-specification:'Open Sans'"
         d="m -87.424443,-151.02233 2.51402,-4.71217 1.186101,0 -3.145747,5.76935 0,3.655 -1.108748,0 0,-3.60343 -3.139301,-5.82092 1.198994,0 2.494681,4.71217 z" /><path
         id="path5616"
         style="font-style:normal;font-variant:normal;font-weight:normal;font-stretch:normal;font-family:'Open Sans';-inkscape-font-specification:'Open Sans'"
         d="m -76.485234,-149.84912 q 0,1.72759 -0.870238,2.70096 -0.870237,0.96693 -2.404434,0.96693 -0.947592,0 -1.682459,-0.44478 -0.734868,-0.44479 -1.134532,-1.27635 -0.399665,-0.83156 -0.399665,-1.94676 0,-1.72758 0.863791,-2.68806 0.863792,-0.96693 2.397989,-0.96693 1.482627,0 2.352864,0.98626 0.876684,0.98627 0.876684,2.66873 z m -5.382581,0 q 0,1.35371 0.541481,2.06279 0.541482,0.70908 1.592213,0.70908 1.050731,0 1.592213,-0.70263 0.547927,-0.70909 0.547927,-2.06924 0,-1.34725 -0.547927,-2.04344 -0.541482,-0.70264 -1.605105,-0.70264 -1.050732,0 -1.585767,0.68974 -0.535035,0.68975 -0.535035,2.05634 z" /><path
         id="path5618"
         style="font-style:normal;font-variant:normal;font-weight:normal;font-stretch:normal;font-family:'Open Sans';-inkscape-font-specification:'Open Sans'"
         d="m -73.610226,-153.37519 0,4.58325 q 0,0.86379 0.393218,1.28924 0.393219,0.42545 1.231225,0.42545 1.108747,0 1.617998,-0.60594 0.515696,-0.60594 0.515696,-1.97899 l 0,-3.71301 1.07007,0 0,7.06504 -0.88313,0 -0.154709,-0.94759 -0.05802,0 q -0.328756,0.52214 -0.915361,0.79933 -0.580158,0.27718 -1.327918,0.27718 -1.289241,0 -1.933861,-0.61239 -0.638175,-0.61238 -0.638175,-1.95964 l 0,-4.62193 1.082963,0 z" /><path
         id="path5620"
         style="font-style:normal;font-variant:normal;font-weight:normal;font-stretch:normal;font-family:'Open Sans';-inkscape-font-specification:'Open Sans'"
         d="m -63.2963,-153.50411 q 0.470573,0 0.844453,0.0773 l -0.148263,0.99272 q -0.438342,-0.0967 -0.773545,-0.0967 -0.857345,0 -1.469734,0.69619 -0.605944,0.69619 -0.605944,1.73403 l 0,3.79037 -1.070069,0 0,-7.06504 0.88313,0 0.122477,1.30858 0.05157,0 q 0.393219,-0.68974 0.947592,-1.06362 0.554374,-0.37388 1.218333,-0.37388 z" /><path
         id="path5622"
         style="font-style:normal;font-variant:normal;font-weight:normal;font-stretch:normal;font-family:'Open Sans';-inkscape-font-specification:'Open Sans'"
         d="m -50.178273,-146.31015 -1.250563,0 -5.150518,-7.90949 -0.05157,0 q 0.10314,1.39238 0.10314,2.55269 l 0,5.3568 -1.012054,0 0,-9.42435 1.237671,0 5.137625,7.87726 0.05157,0 q -0.01289,-0.17405 -0.05802,-1.11519 -0.04512,-0.94759 -0.03223,-1.35371 l 0,-5.40836 1.024946,0 0,9.42435 z" /><path
         id="path5624"
         style="font-style:normal;font-variant:normal;font-weight:normal;font-stretch:normal;font-family:'Open Sans';-inkscape-font-specification:'Open Sans'"
         d="m -43.403314,-146.31015 -0.212724,-1.00561 -0.05157,0 q -0.528589,0.66396 -1.057177,0.90247 -0.522143,0.23206 -1.30858,0.23206 -1.050731,0 -1.650228,-0.54148 -0.593051,-0.54148 -0.593051,-1.54064 0,-2.14014 3.422934,-2.24328 l 1.198995,-0.0387 0,-0.43834 q 0,-0.83156 -0.360988,-1.22478 -0.354541,-0.39966 -1.140978,-0.39966 -0.88313,0 -1.998324,0.54148 l -0.328756,-0.81867 q 0.522143,-0.28363 1.140978,-0.44479 0.625282,-0.16115 1.250564,-0.16115 1.263456,0 1.869399,0.56082 0.61239,0.56082 0.61239,1.79849 l 0,4.82176 -0.792884,0 z m -2.417326,-0.75421 q 0.999161,0 1.566427,-0.54792 0.573713,-0.54793 0.573713,-1.5342 l 0,-0.63817 -1.07007,0.0451 q -1.276349,0.0451 -1.843615,0.39966 -0.56082,0.3481 -0.56082,1.08941 0,0.58016 0.348095,0.88313 0.354542,0.30297 0.98627,0.30297 z" /><path
         id="path5626"
         style="font-style:normal;font-variant:normal;font-weight:normal;font-stretch:normal;font-family:'Open Sans';-inkscape-font-specification:'Open Sans'"
         d="m -31.394033,-146.31015 0,-4.59614 q 0,-0.84446 -0.360987,-1.26346 -0.360988,-0.42545 -1.12164,-0.42545 -0.999162,0 -1.476181,0.57371 -0.477019,0.57371 -0.477019,1.76626 l 0,3.94508 -1.07007,0 0,-4.59614 q 0,-0.84446 -0.360987,-1.26346 -0.360988,-0.42545 -1.128086,-0.42545 -1.005608,0 -1.476181,0.60594 -0.464127,0.5995 -0.464127,1.97254 l 0,3.70657 -1.07007,0 0,-7.06504 0.870238,0 0.174048,0.96693 0.05157,0 q 0.302972,-0.5157 0.850899,-0.80578 0.554374,-0.29007 1.237671,-0.29007 1.656675,0 2.165925,1.19899 l 0.05157,0 q 0.315864,-0.55437 0.915361,-0.87668 0.599497,-0.32231 1.366595,-0.32231 1.198994,0 1.792045,0.61883 0.599497,0.61239 0.599497,1.96609 l 0,4.60904 -1.07007,0 z" /><path
         id="path5628"
         style="font-style:normal;font-variant:normal;font-weight:normal;font-stretch:normal;font-family:'Open Sans';-inkscape-font-specification:'Open Sans'"
         d="m -25.141213,-146.18123 q -1.566428,0 -2.475343,-0.95403 -0.902468,-0.95404 -0.902468,-2.64939 0,-1.70825 0.838006,-2.71386 0.844453,-1.0056 2.262618,-1.0056 1.327918,0 2.101463,0.87668 0.773544,0.87024 0.773544,2.30129 l 0,0.67686 -4.866884,0 q 0.03223,1.24411 0.625282,1.88873 0.599497,0.64462 1.682459,0.64462 1.140978,0 2.256172,-0.47701 l 0,0.95403 q -0.567266,0.24496 -1.076516,0.3481 -0.502804,0.10958 -1.218333,0.10958 z m -0.290079,-6.42686 q -0.850899,0 -1.360149,0.55437 -0.502804,0.55438 -0.593051,1.5342 l 3.693675,0 q 0,-1.01206 -0.451234,-1.54709 -0.451235,-0.54148 -1.289241,-0.54148 z" /><path
         id="path5630"
         style="font-style:normal;font-variant:normal;font-weight:normal;font-stretch:normal;font-family:'Open Sans';-inkscape-font-specification:'Open Sans'"
         d="m -84.278695,-129.80787 -6.194803,0 0,-0.9218 2.481789,-2.49468 q 1.134532,-1.14743 1.495519,-1.63734 0.360988,-0.48991 0.541482,-0.95404 0.180493,-0.46413 0.180493,-0.99916 0,-0.75421 -0.45768,-1.19255 -0.457681,-0.44479 -1.269902,-0.44479 -0.586605,0 -1.115194,0.19339 -0.522142,0.19339 -1.166763,0.70264 l -0.567266,-0.72843 q 1.302133,-1.08296 2.83633,-1.08296 1.327918,0 2.082124,0.6833 0.754206,0.67685 0.754206,1.82428 0,0.89602 -0.502804,1.7727 -0.502804,0.87669 -1.882292,2.2175 l -2.062785,2.01766 0,0.0516 4.847546,0 0,0.99271 z" /><path
         id="path5632"
         style="font-style:normal;font-variant:normal;font-weight:normal;font-stretch:normal;font-family:'Open Sans';-inkscape-font-specification:'Open Sans'"
         d="m -76.723744,-129.80787 -6.194802,0 0,-0.9218 2.481789,-2.49468 q 1.134532,-1.14743 1.495519,-1.63734 0.360988,-0.48991 0.541481,-0.95404 0.180494,-0.46413 0.180494,-0.99916 0,-0.75421 -0.457681,-1.19255 -0.45768,-0.44479 -1.269902,-0.44479 -0.586604,0 -1.115193,0.19339 -0.522143,0.19339 -1.166763,0.70264 l -0.567266,-0.72843 q 1.302133,-1.08296 2.83633,-1.08296 1.327918,0 2.082124,0.6833 0.754206,0.67685 0.754206,1.82428 0,0.89602 -0.502804,1.7727 -0.502804,0.87669 -1.882292,2.2175 l -2.062785,2.01766 0,0.0516 4.847545,0 0,0.99271 z" /><path
         id="path5634"
         style="font-style:normal;font-variant:normal;font-weight:normal;font-stretch:normal;font-family:'Open Sans';-inkscape-font-specification:'Open Sans'"
         d="m -69.523333,-137.01472 q 0,0.90247 -0.50925,1.47618 -0.502804,0.57371 -1.431058,0.7671 l 0,0.0516 q 1.134532,0.14181 1.68246,0.72197 0.547927,0.58016 0.547927,1.5213 0,1.34726 -0.9347,2.07568 -0.934699,0.72198 -2.655836,0.72198 -0.74776,0 -1.373041,-0.11603 -0.618836,-0.10959 -1.205441,-0.39322 l 0,-1.0185 q 0.61239,0.30297 1.302134,0.46412 0.69619,0.15471 1.315025,0.15471 2.443112,0 2.443112,-1.91452 0,-1.71469 -2.694514,-1.71469 l -0.928253,0 0,-0.92181 0.941146,0 q 1.102301,0 1.746921,-0.48346 0.644621,-0.48991 0.644621,-1.35371 0,-0.68974 -0.477019,-1.08296 -0.470573,-0.39322 -1.282795,-0.39322 -0.618836,0 -1.166763,0.1676 -0.547928,0.16761 -1.250564,0.61884 l -0.541481,-0.72197 q 0.580158,-0.45769 1.334364,-0.71553 0.760652,-0.2643 1.598659,-0.2643 1.373042,0 2.133694,0.63173 0.760652,0.62528 0.760652,1.72114 z" /><path
         id="path5636"
         style="font-style:normal;font-variant:normal;font-weight:normal;font-stretch:normal;font-family:'Open Sans';-inkscape-font-specification:'Open Sans'"
         d="m -58.474538,-129.80787 -5.253657,0 0,-9.42435 5.253657,0 0,0.97338 -4.157802,0 0,3.03616 3.9064,0 0,0.96693 -3.9064,0 0,3.46806 4.157802,0 0,0.97982 z" /><path
         id="path5638"
         style="font-style:normal;font-variant:normal;font-weight:normal;font-stretch:normal;font-family:'Open Sans';-inkscape-font-specification:'Open Sans'"
         d="m -54.838879,-133.42419 -2.456004,-3.44872 1.218333,0 1.862953,2.70741 1.856507,-2.70741 1.20544,0 -2.456004,3.44872 2.584928,3.61632 -1.211886,0 -1.978985,-2.86211 -1.998324,2.86211 -1.211886,0 2.584928,-3.61632 z" /><path
         id="path5640"
         style="font-style:normal;font-variant:normal;font-weight:normal;font-stretch:normal;font-family:'Open Sans';-inkscape-font-specification:'Open Sans'"
         d="m -45.285603,-129.80787 -0.212725,-1.0056 -0.05157,0 q -0.528589,0.66395 -1.057177,0.90246 -0.522143,0.23207 -1.30858,0.23207 -1.050731,0 -1.650228,-0.54148 -0.593051,-0.54148 -0.593051,-1.54065 0,-2.14014 3.422935,-2.24328 l 1.198994,-0.0387 0,-0.43834 q 0,-0.83157 -0.360988,-1.22478 -0.354541,-0.39967 -1.140978,-0.39967 -0.88313,0 -1.998323,0.54148 l -0.328757,-0.81867 q 0.522143,-0.28363 1.140978,-0.44478 0.625282,-0.16116 1.250564,-0.16116 1.263456,0 1.869399,0.56082 0.61239,0.56082 0.61239,1.79849 l 0,4.82176 -0.792883,0 z m -2.417327,-0.7542 q 0.999162,0 1.566428,-0.54793 0.573712,-0.54793 0.573712,-1.5342 l 0,-0.63817 -1.07007,0.0451 q -1.276349,0.0451 -1.843615,0.39967 -0.560819,0.34809 -0.560819,1.08941 0,0.58015 0.348095,0.88313 0.354541,0.30297 0.986269,0.30297 z" /><path
         id="path5642"
         style="font-style:normal;font-variant:normal;font-weight:normal;font-stretch:normal;font-family:'Open Sans';-inkscape-font-specification:'Open Sans'"
         d="m -33.276327,-129.80787 0,-4.59614 q 0,-0.84445 -0.360987,-1.26346 -0.360987,-0.42545 -1.12164,-0.42545 -0.999161,0 -1.47618,0.57372 -0.47702,0.57371 -0.47702,1.76626 l 0,3.94507 -1.07007,0 0,-4.59614 q 0,-0.84445 -0.360987,-1.26346 -0.360987,-0.42545 -1.128086,-0.42545 -1.005608,0 -1.476181,0.60595 -0.464126,0.59949 -0.464126,1.97254 l 0,3.70656 -1.07007,0 0,-7.06504 0.870237,0 0.174048,0.96693 0.05157,0 q 0.302972,-0.51569 0.850899,-0.80577 0.554374,-0.29008 1.237672,-0.29008 1.656674,0 2.165924,1.19899 l 0.05157,0 q 0.315864,-0.55437 0.915361,-0.87668 0.599497,-0.32231 1.366596,-0.32231 1.198994,0 1.792044,0.61883 0.599497,0.61239 0.599497,1.9661 l 0,4.60903 -1.07007,0 z" /><path
         id="path5644"
         style="font-style:normal;font-variant:normal;font-weight:normal;font-stretch:normal;font-family:'Open Sans';-inkscape-font-specification:'Open Sans'"
         d="m -26.720535,-129.67894 q -0.689744,0 -1.263456,-0.2514 -0.567266,-0.25785 -0.954039,-0.78644 l -0.07735,0 q 0.07735,0.61883 0.07735,1.17321 l 0,2.90724 -1.07007,0 0,-10.23658 0.870238,0 0.148263,0.96693 0.05157,0 q 0.412558,-0.58015 0.960485,-0.838 0.547927,-0.25785 1.25701,-0.25785 1.405272,0 2.165925,0.96048 0.767098,0.96049 0.767098,2.69452 0,1.74047 -0.779991,2.7074 -0.773544,0.96049 -2.153032,0.96049 z m -0.154709,-6.41398 q -1.082962,0 -1.566428,0.5995 -0.483465,0.5995 -0.496358,1.90808 l 0,0.23851 q 0,1.48907 0.496358,2.13369 0.496358,0.63818 1.592213,0.63818 0.915361,0 1.431057,-0.74132 0.522143,-0.74131 0.522143,-2.04345 0,-1.32147 -0.522143,-2.0241 -0.515696,-0.70909 -1.456842,-0.70909 z" /><path
         id="path5646"
         style="font-style:normal;font-variant:normal;font-weight:normal;font-stretch:normal;font-family:'Open Sans';-inkscape-font-specification:'Open Sans'"
         d="m -20.841594,-129.80787 -1.07007,0 0,-10.03029 1.07007,0 0,10.03029 z" /><path
         id="path5648"
         style="font-style:normal;font-variant:normal;font-weight:normal;font-stretch:normal;font-family:'Open Sans';-inkscape-font-specification:'Open Sans'"
         d="m -15.575043,-129.67894 q -1.566428,0 -2.475343,-0.95404 -0.902469,-0.95404 -0.902469,-2.64939 0,-1.70824 0.838007,-2.71385 0.844453,-1.00561 2.262618,-1.00561 1.327918,0 2.101463,0.87668 0.773544,0.87024 0.773544,2.3013 l 0,0.67685 -4.866884,0 q 0.03223,1.24412 0.625281,1.88874 0.599498,0.64462 1.68246,0.64462 1.140978,0 2.256172,-0.47702 l 0,0.95404 q -0.567267,0.24495 -1.076517,0.34809 -0.502804,0.10959 -1.218332,0.10959 z m -0.29008,-6.42687 q -0.850899,0 -1.360149,0.55438 -0.502804,0.55437 -0.593051,1.53419 l 3.693676,0 q 0,-1.01205 -0.451235,-1.54709 -0.451234,-0.54148 -1.289241,-0.54148 z" /><path
         id="path5650"
         style="font-style:normal;font-variant:normal;font-weight:normal;font-stretch:normal;font-family:'Open Sans';-inkscape-font-specification:'Open Sans'"
         d="m -1.6447986,-129.80787 -1.1732092,-2.99748 -3.7774759,0 -1.1603168,2.99748 -1.1087472,0 3.7259062,-9.46302 0.9218073,0 3.70656765,9.46302 -1.13453205,0 z m -1.514858,-3.98375 -1.0958548,-2.92013 q -0.2127248,-0.55438 -0.4383419,-1.36015 -0.1418165,0.61883 -0.4061109,1.36015 l -1.1087472,2.92013 3.0490548,0 z" /><path
         id="path5652"
         style="font-style:normal;font-variant:normal;font-weight:normal;font-stretch:normal;font-family:'Open Sans';-inkscape-font-specification:'Open Sans'"
         d="m 2.171352,-129.80787 -2.68162117,-7.06504 1.14742443,0 1.52130424,4.19004 q 0.5156964,1.46973 0.6059433,1.90807 l 0.05157,0 q 0.070908,-0.34165 0.4447881,-1.41172 0.3803261,-1.07651 1.6953518,-4.68639 l 1.1474245,0 -2.6816212,7.06504 -1.2505636,0 z" /><path
         id="path5654"
         style="font-style:normal;font-variant:normal;font-weight:normal;font-stretch:normal;font-family:'Open Sans';-inkscape-font-specification:'Open Sans'"
         d="m 10.235557,-129.67894 q -1.5664278,0 -2.4753426,-0.95404 -0.9024687,-0.95404 -0.9024687,-2.64939 0,-1.70824 0.8380066,-2.71385 0.8444528,-1.00561 2.2626178,-1.00561 1.3279179,0 2.1014629,0.87668 0.773544,0.87024 0.773544,2.3013 l 0,0.67685 -4.8668841,0 q 0.032231,1.24412 0.6252819,1.88874 0.599497,0.64462 1.6824592,0.64462 1.140978,0 2.256172,-0.47702 l 0,0.95404 q -0.567266,0.24495 -1.076516,0.34809 -0.502804,0.10959 -1.218333,0.10959 z m -0.2900793,-6.42687 q -0.850899,0 -1.3601491,0.55438 -0.502804,0.55437 -0.5930509,1.53419 l 3.6936753,0 q 0,-1.01205 -0.451234,-1.54709 -0.451235,-0.54148 -1.2892413,-0.54148 z" /><path
         id="path5656"
         style="font-style:normal;font-variant:normal;font-weight:normal;font-stretch:normal;font-family:'Open Sans';-inkscape-font-specification:'Open Sans'"
         d="m -87.424443,-118.01776 2.51402,-4.71217 1.186101,0 -3.145747,5.76935 0,3.655 -1.108748,0 0,-3.60343 -3.139301,-5.82092 1.198994,0 2.494681,4.71217 z" /><path
         id="path5658"
         style="font-style:normal;font-variant:normal;font-weight:normal;font-stretch:normal;font-family:'Open Sans';-inkscape-font-specification:'Open Sans'"
         d="m -76.485234,-116.84455 q 0,1.72758 -0.870238,2.70096 -0.870237,0.96693 -2.404434,0.96693 -0.947592,0 -1.682459,-0.44479 -0.734868,-0.44478 -1.134532,-1.27635 -0.399665,-0.83156 -0.399665,-1.94675 0,-1.72758 0.863791,-2.68807 0.863792,-0.96693 2.397989,-0.96693 1.482627,0 2.352864,0.98627 0.876684,0.98627 0.876684,2.66873 z m -5.382581,0 q 0,1.3537 0.541481,2.06279 0.541482,0.70908 1.592213,0.70908 1.050731,0 1.592213,-0.70264 0.547927,-0.70908 0.547927,-2.06923 0,-1.34726 -0.547927,-2.04345 -0.541482,-0.70263 -1.605105,-0.70263 -1.050732,0 -1.585767,0.68974 -0.535035,0.68975 -0.535035,2.05634 z" /><path
         id="path5660"
         style="font-style:normal;font-variant:normal;font-weight:normal;font-stretch:normal;font-family:'Open Sans';-inkscape-font-specification:'Open Sans'"
         d="m -73.610226,-120.37062 0,4.58325 q 0,0.86379 0.393218,1.28924 0.393219,0.42545 1.231225,0.42545 1.108747,0 1.617998,-0.60594 0.515696,-0.60595 0.515696,-1.97899 l 0,-3.71301 1.07007,0 0,7.06504 -0.88313,0 -0.154709,-0.94759 -0.05802,0 q -0.328756,0.52214 -0.915361,0.79932 -0.580158,0.27719 -1.327918,0.27719 -1.289241,0 -1.933861,-0.61239 -0.638175,-0.61239 -0.638175,-1.95964 l 0,-4.62193 1.082963,0 z" /><path
         id="path5662"
         style="font-style:normal;font-variant:normal;font-weight:normal;font-stretch:normal;font-family:'Open Sans';-inkscape-font-specification:'Open Sans'"
         d="m -63.2963,-120.49955 q 0.470573,0 0.844453,0.0774 l -0.148263,0.99271 q -0.438342,-0.0967 -0.773545,-0.0967 -0.857345,0 -1.469734,0.69619 -0.605944,0.69619 -0.605944,1.73403 l 0,3.79037 -1.070069,0 0,-7.06504 0.88313,0 0.122477,1.30858 0.05157,0 q 0.393219,-0.68975 0.947592,-1.06363 0.554374,-0.37388 1.218333,-0.37388 z" /><path
         id="path5664"
         style="font-style:normal;font-variant:normal;font-weight:normal;font-stretch:normal;font-family:'Open Sans';-inkscape-font-specification:'Open Sans'"
         d="m -53.504514,-121.88548 q -1.553536,0 -2.456004,1.03784 -0.896023,1.03139 -0.896023,2.82988 0,1.85006 0.863792,2.86212 0.870237,1.0056 2.475342,1.0056 0.98627,0 2.249726,-0.35454 l 0,0.96049 q -0.979823,0.36743 -2.417327,0.36743 -2.082124,0 -3.216656,-1.26345 -1.128086,-1.26346 -1.128086,-3.59054 0,-1.45684 0.541481,-2.5527 0.547928,-1.09585 1.572874,-1.6889 1.031393,-0.59305 2.423773,-0.59305 1.482627,0 2.591374,0.54148 l -0.464126,0.94114 q -1.07007,-0.5028 -2.14014,-0.5028 z" /><path
         id="path5666"
         style="font-style:normal;font-variant:normal;font-weight:normal;font-stretch:normal;font-family:'Open Sans';-inkscape-font-specification:'Open Sans'"
         d="m -48.302429,-113.30558 -1.070069,0 0,-7.06504 1.070069,0 0,7.06504 z m -1.160316,-8.97957 q 0,-0.36743 0.180493,-0.53503 0.180494,-0.17405 0.451235,-0.17405 0.257848,0 0.444788,0.17405 0.18694,0.17405 0.18694,0.53503 0,0.36099 -0.18694,0.54149 -0.18694,0.17404 -0.444788,0.17404 -0.270741,0 -0.451235,-0.17404 -0.180493,-0.1805 -0.180493,-0.54149 z" /><path
         id="path5668"
         style="font-style:normal;font-variant:normal;font-weight:normal;font-stretch:normal;font-family:'Open Sans';-inkscape-font-specification:'Open Sans'"
         d="m -43.738514,-114.05979 q 0.283633,0 0.547927,-0.0387 0.264295,-0.0451 0.419004,-0.0902 l 0,0.81867 q -0.174048,0.0838 -0.515697,0.13537 -0.335202,0.058 -0.605943,0.058 -2.049893,0 -2.049893,-2.15948 l 0,-4.20292 -1.012054,0 0,-0.5157 1.012054,-0.44479 0.451234,-1.50841 0.618836,0 0,1.63734 2.049893,0 0,0.83156 -2.049893,0 0,4.1578 q 0,0.63817 0.302971,0.97982 0.302972,0.34165 0.831561,0.34165 z" /><path
         id="path5670"
         style="font-style:normal;font-variant:normal;font-weight:normal;font-stretch:normal;font-family:'Open Sans';-inkscape-font-specification:'Open Sans'"
         d="m -42.475061,-120.37062 1.147425,0 1.547089,4.02888 q 0.50925,1.37948 0.631728,1.99187 l 0.05157,0 q 0.0838,-0.32875 0.348095,-1.12164 0.270741,-0.79933 1.753368,-4.89911 l 1.147425,0 -3.036163,8.04486 q -0.451234,1.19255 -1.057177,1.68891 -0.599497,0.5028 -1.476181,0.5028 -0.489912,0 -0.966931,-0.10959 l 0,-0.85734 q 0.354541,0.0774 0.792883,0.0774 1.102301,0 1.572874,-1.23767 l 0.393219,-1.00561 -2.849223,-7.10371 z" /><path
         id="path5672"
         style="font-style:normal;font-variant:normal;font-weight:normal;font-stretch:normal;font-family:'Open Sans';-inkscape-font-specification:'Open Sans'"
         d="m -33.579297,-114.83978 0.09669,0.14826 q -0.167601,0.64462 -0.483465,1.49552 -0.315864,0.85735 -0.657513,1.59222 l -0.805775,0 q 0.174047,-0.67041 0.380326,-1.65668 0.212724,-0.98627 0.296525,-1.57932 l 1.173209,0 z" /><path
         id="path5674"
         style="font-style:normal;font-variant:normal;font-weight:normal;font-stretch:normal;font-family:'Open Sans';-inkscape-font-specification:'Open Sans'"
         d="m -20.499947,-113.30558 -1.250564,0 -5.150517,-7.9095 -0.05157,0 q 0.103139,1.39238 0.103139,2.5527 l 0,5.3568 -1.012054,0 0,-9.42435 1.237672,0 5.137625,7.87726 0.05157,0 q -0.01289,-0.17405 -0.05802,-1.1152 -0.04512,-0.94759 -0.03223,-1.3537 l 0,-5.40836 1.024947,0 0,9.42435 z" /><path
         id="path5676"
         style="font-style:normal;font-variant:normal;font-weight:normal;font-stretch:normal;font-family:'Open Sans';-inkscape-font-specification:'Open Sans'"
         d="m -15.510587,-118.01776 2.51402,-4.71217 1.186102,0 -3.145748,5.76935 0,3.655 -1.108747,0 0,-3.60343 -3.139302,-5.82092 1.198994,0 2.494681,4.71217 z" /><path
         id="path5678"
         style="font-style:normal;font-variant:normal;font-weight:normal;font-stretch:normal;font-family:'Open Sans';-inkscape-font-specification:'Open Sans'"
         d="m -1.5352107,-118.7075 q 0,5.53084 -4.2802799,5.53084 -0.7477597,0 -1.1861016,-0.12892 l 0,-0.92181 q 0.5156964,0.1676 1.1732092,0.1676 1.5470891,0 2.3335261,-0.95404 0.7928832,-0.96048 0.8637914,-2.93947 l -0.077354,0 q -0.3545413,0.53504 -0.9411459,0.81867 -0.5866046,0.27719 -1.321472,0.27719 -1.2505636,0 -1.985431,-0.74776 -0.7348673,-0.74776 -0.7348673,-2.08857 0,-1.46974 0.818668,-2.32063 0.8251142,-0.8509 2.1659247,-0.8509 0.9604845,0 1.6760132,0.49635 0.721975,0.48992 1.1087472,1.43751 0.3867723,0.94114 0.3867723,2.22394 z m -3.1715327,-3.24244 q -0.9218072,0 -1.4246112,0.59305 -0.5028039,0.59305 -0.5028039,1.65023 0,0.92825 0.4641267,1.46328 0.4641267,0.52859 1.4117188,0.52859 0.5866046,0 1.0765162,-0.23851 0.4963577,-0.23851 0.7799907,-0.65106 0.283633,-0.41256 0.283633,-0.86379 0,-0.67686 -0.2642944,-1.25057 -0.2642943,-0.57371 -0.7413135,-0.90247 -0.4705729,-0.32875 -1.0829624,-0.32875 z" /><path
         id="path5680"
         style="font-style:normal;font-variant:normal;font-weight:normal;font-stretch:normal;font-family:'Open Sans';-inkscape-font-specification:'Open Sans'"
         d="m 6.0713058,-118.03065 q 0,2.44311 -0.7735445,3.64855 -0.7670984,1.20544 -2.3528647,1.20544 -1.5213043,0 -2.31418745,-1.23122 -0.79288317,-1.23767 -0.79288317,-3.62277 0,-2.46245 0.76709835,-3.655 0.76709837,-1.19255 2.33997227,-1.19255 1.5341967,0 2.3270799,1.24412 0.7993293,1.24412 0.7993293,3.60343 z m -5.15051744,0 q 0,2.05634 0.48346534,2.99748 0.4834653,0.9347 1.5406429,0.9347 1.07007,0 1.5470891,-0.94759 0.4834654,-0.95404 0.4834654,-2.98459 0,-2.03055 -0.4834654,-2.9717 -0.4770191,-0.94759 -1.5470891,-0.94759 -1.0571776,0 -1.5406429,0.9347 -0.48346534,0.92825 -0.48346534,2.98459 z" /><path
         id="path5682"
         style="font-style:normal;font-variant:normal;font-weight:normal;font-stretch:normal;font-family:'Open Sans';-inkscape-font-specification:'Open Sans'"
         d="m 13.574691,-113.30558 -6.1948029,0 0,-0.92181 2.4817888,-2.49468 q 1.1345321,-1.14743 1.4955191,-1.63734 0.360988,-0.48991 0.541482,-0.95404 0.180493,-0.46412 0.180493,-0.99916 0,-0.7542 -0.45768,-1.19254 -0.457681,-0.44479 -1.269903,-0.44479 -0.5866042,0 -1.115193,0.19338 -0.5221425,0.19339 -1.166763,0.70264 l -0.567266,-0.72842 q 1.3021333,-1.08296 2.83633,-1.08296 1.327918,0 2.082124,0.68329 0.754206,0.67686 0.754206,1.82428 0,0.89602 -0.502804,1.77271 -0.502804,0.87668 -1.882292,2.21749 l -2.0627851,2.01766 0,0.0516 4.8475461,0 0,0.99272 z" /><path
         id="path5684"
         style="font-style:normal;font-variant:normal;font-weight:normal;font-stretch:normal;font-family:'Open Sans';-inkscape-font-specification:'Open Sans'"
         d="m 18.899258,-113.30558 -1.044285,0 0,-6.71695 q 0,-0.838 0.05157,-1.58576 -0.13537,0.13537 -0.302972,0.28363 -0.167601,0.14826 -1.534196,1.25701 l -0.567266,-0.73487 2.494681,-1.92741 0.902468,0 0,9.42435 z" /><path
         id="path5686"
         style="font-style:normal;font-variant:normal;font-weight:normal;font-stretch:normal;font-family:'Open Sans';-inkscape-font-specification:'Open Sans'"
         d="m 28.736162,-118.03065 q 0,2.44311 -0.773545,3.64855 -0.767098,1.20544 -2.352864,1.20544 -1.521305,0 -2.314188,-1.23122 -0.792883,-1.23767 -0.792883,-3.62277 0,-2.46245 0.767098,-3.655 0.767099,-1.19255 2.339973,-1.19255 1.534196,0 2.327079,1.24412 0.79933,1.24412 0.79933,3.60343 z m -5.150518,0 q 0,2.05634 0.483466,2.99748 0.483465,0.9347 1.540643,0.9347 1.07007,0 1.547089,-0.94759 0.483465,-0.95404 0.483465,-2.98459 0,-2.03055 -0.483465,-2.9717 -0.477019,-0.94759 -1.547089,-0.94759 -1.057178,0 -1.540643,0.9347 -0.483466,0.92825 -0.483466,2.98459 z" /></g><g
       id="text4821-7"
       style="font-style:normal;font-weight:normal;font-size:14.93485737px;line-height:125%;font-family:Sans;letter-spacing:0px;word-spacing:0px;fill:#000000;fill-opacity:1;stroke:none;stroke-width:1px;stroke-linecap:butt;stroke-linejoin:miter;stroke-opacity:1"><path
         id="path5531"
         style="font-style:normal;font-variant:normal;font-weight:normal;font-stretch:normal;font-size:18.79773712px;font-family:'Open Sans';-inkscape-font-specification:'Open Sans'"
         d="m 89.306871,-71.899057 q 0,2.037646 -1.395144,3.139076 -1.385966,1.092251 -3.974326,1.092251 l -1.578717,0 0,5.277685 -1.560359,0 0,-13.419088 3.478683,0 q 5.029863,0 5.029863,3.910076 z m -6.948187,2.891254 1.404323,0 q 2.07436,0 3.001397,-0.670037 0.927037,-0.670036 0.927037,-2.147788 0,-1.330895 -0.871966,-1.982574 -0.871965,-0.651679 -2.71686,-0.651679 l -1.743931,0 0,5.452078 z" /><path
         id="path5533"
         style="font-style:normal;font-variant:normal;font-weight:normal;font-stretch:normal;font-size:18.79773712px;font-family:'Open Sans';-inkscape-font-specification:'Open Sans'"
         d="m 100.55981,-67.429087 q 0,2.45986 -1.239105,3.845826 -1.239109,1.376787 -3.423611,1.376787 -1.349252,0 -2.39561,-0.633322 -1.046359,-0.633322 -1.615431,-1.817359 -0.569072,-1.184037 -0.569072,-2.771932 0,-2.45986 1.22993,-3.827469 1.22993,-1.376787 3.414433,-1.376787 2.111074,0 3.350183,1.404323 1.248283,1.404323 1.248283,3.799933 z m -7.664113,0 q 0,1.927502 0.771001,2.937146 0.771001,1.009645 2.26711,1.009645 1.496109,0 2.26711,-1.000466 0.78018,-1.009644 0.78018,-2.946325 0,-1.918324 -0.78018,-2.909611 -0.771001,-1.000465 -2.285467,-1.000465 -1.496109,0 -2.257931,0.982108 -0.761823,0.982108 -0.761823,2.927968 z" /><path
         id="path5535"
         style="font-style:normal;font-variant:normal;font-weight:normal;font-stretch:normal;font-size:18.79773712px;font-family:'Open Sans';-inkscape-font-specification:'Open Sans'"
         d="m 110.10554,-62.390045 0,-6.507615 q 0,-1.22993 -0.55989,-1.835717 -0.5599,-0.605786 -1.75311,-0.605786 -1.57872,0 -2.31301,0.853608 -0.73428,0.853608 -0.73428,2.817825 l 0,5.277685 -1.52365,0 0,-10.059727 1.23911,0 0.24782,1.376788 0.0734,0 q 0.46811,-0.743465 1.31254,-1.147323 0.84443,-0.413036 1.88161,-0.413036 1.81736,0 2.73522,0.881144 0.91785,0.871965 0.91785,2.799467 l 0,6.562687 -1.52364,0 z" /><path
         id="path5537"
         style="font-style:normal;font-variant:normal;font-weight:normal;font-stretch:normal;font-size:18.79773712px;font-family:'Open Sans';-inkscape-font-specification:'Open Sans'"
         d="m 121.18409,-62.390045 -7.29697,0 0,-1.03718 5.48879,-7.83851 -5.14919,0 0,-1.184037 6.81969,0 0,1.184037 -5.41536,7.691653 5.55304,0 0,1.184037 z" /><path
         id="path5539"
         style="font-style:normal;font-variant:normal;font-weight:normal;font-stretch:normal;font-size:18.79773712px;font-family:'Open Sans';-inkscape-font-specification:'Open Sans'"
         d="m 125.08499,-62.390045 -1.52365,0 0,-10.059727 1.52365,0 0,10.059727 z m -1.65215,-12.785766 q 0,-0.523179 0.257,-0.761822 0.257,-0.247822 0.6425,-0.247822 0.36715,0 0.63333,0.247822 0.26617,0.247822 0.26617,0.761822 0,0.514001 -0.26617,0.771001 -0.26618,0.247822 -0.63333,0.247822 -0.3855,0 -0.6425,-0.247822 -0.257,-0.257 -0.257,-0.771001 z" /><path
         id="path5541"
         style="font-style:normal;font-variant:normal;font-weight:normal;font-stretch:normal;font-size:18.79773712px;font-family:'Open Sans';-inkscape-font-specification:'Open Sans'"
         d="m 132.58389,-62.206474 q -2.2304,0 -3.52458,-1.35843 -1.285,-1.35843 -1.285,-3.772397 0,-2.432325 1.19322,-3.864183 1.20239,-1.431859 3.22168,-1.431859 1.89079,0 2.99222,1.248287 1.10143,1.239109 1.10143,3.276754 l 0,0.963751 -6.92983,0 q 0.0459,1.771466 0.89032,2.689325 0.85361,0.917858 2.39561,0.917858 1.62461,0 3.2125,-0.679215 l 0,1.35843 q -0.80771,0.348786 -1.53282,0.495644 -0.71593,0.156035 -1.73475,0.156035 z m -0.41304,-9.151046 q -1.21157,0 -1.93668,0.789358 -0.71593,0.789358 -0.84443,2.184502 l 5.25933,0 q 0,-1.441037 -0.6425,-2.202859 -0.6425,-0.771001 -1.83572,-0.771001 z" /><path
         id="path5543"
         style="font-style:normal;font-variant:normal;font-weight:normal;font-stretch:normal;font-size:18.79773712px;font-family:'Open Sans';-inkscape-font-specification:'Open Sans'"
         d="m 145.36048,-65.134441 q 0,1.404323 -1.04636,2.166145 -1.04636,0.761822 -2.93715,0.761822 -2.00093,0 -3.12072,-0.633322 l 0,-1.413501 q 0.72511,0.367143 1.55118,0.57825 0.83525,0.211108 1.60625,0.211108 1.19322,0 1.83572,-0.376322 0.6425,-0.385501 0.6425,-1.16568 0,-0.587429 -0.514,-1.000466 -0.50482,-0.422215 -1.98257,-0.991287 -1.40433,-0.523179 -2.00093,-0.908679 -0.58743,-0.394679 -0.88115,-0.890323 -0.28453,-0.495643 -0.28453,-1.184037 0,-1.22993 1.00046,-1.936681 1.00047,-0.715929 2.7444,-0.715929 1.62461,0 3.17579,0.660858 l -0.54154,1.239108 q -1.51446,-0.624143 -2.74439,-0.624143 -1.08308,0 -1.63379,0.339607 -0.55072,0.339608 -0.55072,0.936216 0,0.403857 0.20193,0.688393 0.21111,0.284536 0.67004,0.541537 0.45893,0.257 1.76229,0.743465 1.78982,0.651679 2.41396,1.312537 0.63333,0.660858 0.63333,1.661324 z" /><path
         id="path5545"
         style="font-style:normal;font-variant:normal;font-weight:normal;font-stretch:normal;font-size:18.79773712px;font-family:'Open Sans';-inkscape-font-specification:'Open Sans'"
         d="m 89.325228,-41.976878 -1.991752,0 0,3.084004 -1.459395,0 0,-3.084004 -6.525972,0 0,-1.330894 6.369937,-9.077618 1.61543,0 0,9.022547 1.991752,0 0,1.385965 z m -3.451147,-1.385965 0,-4.460792 q 0,-1.312537 0.09179,-2.964682 l -0.07343,0 q -0.440572,0.881144 -0.826073,1.459395 l -4.194612,5.966079 5.002327,0 z" /><path
         id="path5547"
         style="font-style:normal;font-variant:normal;font-weight:normal;font-stretch:normal;font-size:18.79773712px;font-family:'Open Sans';-inkscape-font-specification:'Open Sans'"
         d="m 99.522633,-45.620775 q 0,3.478683 -1.101429,5.195078 -1.092252,1.716395 -3.350183,1.716395 -2.166146,0 -3.295111,-1.753109 -1.128966,-1.762288 -1.128966,-5.158364 0,-3.506218 1.092251,-5.204256 1.092252,-1.698038 3.331826,-1.698038 2.184503,0 3.313468,1.771467 1.138144,1.771466 1.138144,5.130827 z m -7.333687,0 q 0,2.927968 0.688394,4.268041 0.688393,1.330895 2.193681,1.330895 1.523645,0 2.20286,-1.349252 0.688393,-1.35843 0.688393,-4.249684 0,-2.891253 -0.688393,-4.231326 -0.679215,-1.349252 -2.20286,-1.349252 -1.505288,0 -2.193681,1.330894 -0.688394,1.321716 -0.688394,4.249684 z" /><path
         id="path5549"
         style="font-style:normal;font-variant:normal;font-weight:normal;font-stretch:normal;font-size:18.79773712px;font-family:'Open Sans';-inkscape-font-specification:'Open Sans'"
         d="m 105.82832,-52.504712 q 1.83572,0 2.90961,0.853608 1.07389,0.853609 1.07389,2.358896 0,0.991287 -0.61496,1.808181 -0.61497,0.816894 -1.96422,1.48693 1.63379,0.78018 2.32218,1.642967 0.6884,0.853608 0.6884,1.982573 0,1.670502 -1.16568,2.670968 -1.16568,0.991287 -3.19415,0.991287 -2.14779,0 -3.30429,-0.936216 -1.1565,-0.945394 -1.1565,-2.670967 0,-2.303824 2.80865,-3.588826 -1.26665,-0.715929 -1.81736,-1.542002 -0.55072,-0.835251 -0.55072,-1.863252 0,-1.459395 1.0739,-2.322181 1.08307,-0.871966 2.89125,-0.871966 z m -2.90043,10.224941 q 0,1.10143 0.76182,1.716395 0.771,0.614965 2.15697,0.614965 1.36761,0 2.12943,-0.642501 0.76182,-0.6425 0.76182,-1.762287 0,-0.890323 -0.71593,-1.578717 -0.71593,-0.697572 -2.49657,-1.349251 -1.36761,0.587429 -1.98258,1.303358 -0.61496,0.706751 -0.61496,1.698038 z m 2.88207,-8.985832 q -1.14732,0 -1.799,0.550715 -0.65168,0.550715 -0.65168,1.468573 0,0.84443 0.54154,1.450216 0.54153,0.605787 2.00093,1.211573 1.31254,-0.550715 1.85407,-1.184037 0.55072,-0.633322 0.55072,-1.477752 0,-0.927037 -0.67004,-1.468573 -0.66086,-0.550715 -1.82654,-0.550715 z" /><path
         id="path5551"
         style="font-style:normal;font-variant:normal;font-weight:normal;font-stretch:normal;font-size:18.79773712px;font-family:'Open Sans';-inkscape-font-specification:'Open Sans'"
         d="m 121.03723,-45.620775 q 0,3.478683 -1.10143,5.195078 -1.09225,1.716395 -3.35018,1.716395 -2.16615,0 -3.29511,-1.753109 -1.12897,-1.762288 -1.12897,-5.158364 0,-3.506218 1.09225,-5.204256 1.09225,-1.698038 3.33183,-1.698038 2.1845,0 3.31347,1.771467 1.13814,1.771466 1.13814,5.130827 z m -7.33369,0 q 0,2.927968 0.6884,4.268041 0.68839,1.330895 2.19368,1.330895 1.52364,0 2.20286,-1.349252 0.68839,-1.35843 0.68839,-4.249684 0,-2.891253 -0.68839,-4.231326 -0.67922,-1.349252 -2.20286,-1.349252 -1.50529,0 -2.19368,1.330894 -0.6884,1.321716 -0.6884,4.249684 z" /><path
         id="path5553"
         style="font-style:normal;font-variant:normal;font-weight:normal;font-stretch:normal;font-size:18.79773712px;font-family:'Open Sans';-inkscape-font-specification:'Open Sans'"
         d="m 133.42832,-38.892874 -1.48693,0 0,-9.564083 q 0,-1.193216 0.0734,-2.257931 -0.19275,0.19275 -0.4314,0.403858 -0.23864,0.211107 -2.1845,1.789823 l -0.80772,-1.046358 3.55212,-2.744396 1.285,0 0,13.419087 z" /><path
         id="path5555"
         style="font-style:normal;font-variant:normal;font-weight:normal;font-stretch:normal;font-size:18.79773712px;font-family:'Open Sans';-inkscape-font-specification:'Open Sans'"
         d="m 142.98322,-52.504712 q 1.83572,0 2.90961,0.853608 1.0739,0.853609 1.0739,2.358896 0,0.991287 -0.61497,1.808181 -0.61496,0.816894 -1.96422,1.48693 1.63379,0.78018 2.32219,1.642967 0.68839,0.853608 0.68839,1.982573 0,1.670502 -1.16568,2.670968 -1.16568,0.991287 -3.19415,0.991287 -2.14779,0 -3.30429,-0.936216 -1.1565,-0.945394 -1.1565,-2.670967 0,-2.303824 2.80865,-3.588826 -1.26665,-0.715929 -1.81736,-1.542002 -0.55072,-0.835251 -0.55072,-1.863252 0,-1.459395 1.0739,-2.322181 1.08307,-0.871966 2.89125,-0.871966 z m -2.90043,10.224941 q 0,1.10143 0.76182,1.716395 0.771,0.614965 2.15697,0.614965 1.36761,0 2.12943,-0.642501 0.76182,-0.6425 0.76182,-1.762287 0,-0.890323 -0.71593,-1.578717 -0.71593,-0.697572 -2.49657,-1.349251 -1.36761,0.587429 -1.98258,1.303358 -0.61496,0.706751 -0.61496,1.698038 z m 2.88207,-8.985832 q -1.14732,0 -1.799,0.550715 -0.65168,0.550715 -0.65168,1.468573 0,0.84443 0.54154,1.450216 0.54153,0.605787 2.00093,1.211573 1.31254,-0.550715 1.85407,-1.184037 0.55072,-0.633322 0.55072,-1.477752 0,-0.927037 -0.67004,-1.468573 -0.66086,-0.550715 -1.82654,-0.550715 z" /><path
         id="path5557"
         style="font-style:normal;font-variant:normal;font-weight:normal;font-stretch:normal;font-size:18.79773712px;font-family:'Open Sans';-inkscape-font-specification:'Open Sans'"
         d="m 153.24487,-39.966768 q 0.40386,0 0.78018,-0.05507 0.37633,-0.06425 0.59661,-0.128501 l 0,1.16568 q -0.24782,0.119322 -0.73428,0.192751 -0.47729,0.08261 -0.86279,0.08261 -2.91879,0 -2.91879,-3.074825 l 0,-5.984436 -1.44104,0 0,-0.734287 1.44104,-0.633322 0.6425,-2.147788 0.88114,0 0,2.33136 2.91879,0 0,1.184037 -2.91879,0 0,5.920186 q 0,0.908679 0.4314,1.395144 0.43139,0.486465 1.18403,0.486465 z" /><path
         id="path5559"
         style="font-style:normal;font-variant:normal;font-weight:normal;font-stretch:normal;font-size:18.79773712px;font-family:'Open Sans';-inkscape-font-specification:'Open Sans'"
         d="m 163.52489,-38.892874 0,-6.507615 q 0,-1.22993 -0.5599,-1.835716 -0.55989,-0.605787 -1.75311,-0.605787 -1.58789,0 -2.32218,0.862787 -0.7251,0.862787 -0.7251,2.827003 l 0,5.259328 -1.52365,0 0,-14.281874 1.52365,0 0,4.323112 q 0,0.78018 -0.0734,1.29418 l 0.0918,0 q 0.44975,-0.725108 1.27583,-1.138144 0.83525,-0.422215 1.89996,-0.422215 1.8449,0 2.76276,0.881144 0.92703,0.871966 0.92703,2.781111 l 0,6.562686 -1.52364,0 z" /><path
         id="path5561"
         style="font-style:normal;font-variant:normal;font-weight:normal;font-stretch:normal;font-size:18.79773712px;font-family:'Open Sans';-inkscape-font-specification:'Open Sans'"
         d="m 180.85405,-42.463342 q 0,1.771466 -1.285,2.762753 -1.285,0.991287 -3.48786,0.991287 -2.38643,0 -3.67143,-0.614965 l 0,-1.505288 q 0.82607,0.348786 1.799,0.550715 0.97293,0.201929 1.9275,0.201929 1.56036,0 2.34972,-0.587429 0.78936,-0.596608 0.78936,-1.652145 0,-0.697572 -0.28454,-1.138144 -0.27536,-0.449751 -0.93621,-0.826073 -0.65168,-0.376322 -1.99176,-0.853608 -1.87243,-0.670036 -2.68014,-1.587895 -0.79854,-0.917858 -0.79854,-2.39561 0,-1.55118 1.16568,-2.469038 1.16568,-0.917859 3.08401,-0.917859 2.00093,0 3.68061,0.734287 l -0.48647,1.35843 q -1.66132,-0.697572 -3.23086,-0.697572 -1.23911,0 -1.93668,0.532358 -0.69757,0.532357 -0.69757,1.477751 0,0.697573 0.257,1.147323 0.257,0.440572 0.86278,0.816894 0.61497,0.367143 1.87244,0.816894 2.11107,0.752644 2.90043,1.61543 0.79853,0.862787 0.79853,2.239575 z" /><path
         id="path5563"
         style="font-style:normal;font-variant:normal;font-weight:normal;font-stretch:normal;font-size:18.79773712px;font-family:'Open Sans';-inkscape-font-specification:'Open Sans'"
         d="m 186.6182,-39.966768 q 0.40386,0 0.78018,-0.05507 0.37633,-0.06425 0.59661,-0.128501 l 0,1.16568 q -0.24782,0.119322 -0.73429,0.192751 -0.47728,0.08261 -0.86278,0.08261 -2.91879,0 -2.91879,-3.074825 l 0,-5.984436 -1.44104,0 0,-0.734287 1.44104,-0.633322 0.6425,-2.147788 0.88114,0 0,2.33136 2.91879,0 0,1.184037 -2.91879,0 0,5.920186 q 0,0.908679 0.4314,1.395144 0.43139,0.486465 1.18403,0.486465 z" /><path
         id="path5565"
         style="font-style:normal;font-variant:normal;font-weight:normal;font-stretch:normal;font-size:18.79773712px;font-family:'Open Sans';-inkscape-font-specification:'Open Sans'"
         d="m 194.60357,-49.136172 q 0.67004,0 1.2024,0.110143 l -0.21111,1.413502 q -0.62415,-0.137679 -1.10143,-0.137679 -1.22075,0 -2.09272,0.991287 -0.86279,0.991287 -0.86279,2.469039 l 0,5.397006 -1.52364,0 0,-10.059726 1.25747,0 0.17439,1.863252 0.0734,0 q 0.55989,-0.982108 1.34925,-1.514466 0.78936,-0.532358 1.73475,-0.532358 z" /><path
         id="path5567"
         style="font-style:normal;font-variant:normal;font-weight:normal;font-stretch:normal;font-size:18.79773712px;font-family:'Open Sans';-inkscape-font-specification:'Open Sans'"
         d="m 201.93726,-38.709302 q -2.2304,0 -3.52458,-1.35843 -1.285,-1.358431 -1.285,-3.772398 0,-2.432324 1.19322,-3.864183 1.20239,-1.431859 3.22168,-1.431859 1.89079,0 2.99222,1.248287 1.10143,1.239109 1.10143,3.276754 l 0,0.963751 -6.92983,0 q 0.0459,1.771467 0.89032,2.689325 0.85361,0.917858 2.39561,0.917858 1.62461,0 3.2125,-0.679215 l 0,1.358431 q -0.80771,0.348786 -1.53282,0.495643 -0.71593,0.156036 -1.73475,0.156036 z m -0.41304,-9.151047 q -1.21157,0 -1.93668,0.789358 -0.71593,0.789358 -0.84443,2.184503 l 5.25933,0 q 0,-1.441038 -0.6425,-2.20286 -0.6425,-0.771001 -1.83572,-0.771001 z" /><path
         id="path5569"
         style="font-style:normal;font-variant:normal;font-weight:normal;font-stretch:normal;font-size:18.79773712px;font-family:'Open Sans';-inkscape-font-specification:'Open Sans'"
         d="m 212.47427,-38.709302 q -2.2304,0 -3.52458,-1.35843 -1.285,-1.358431 -1.285,-3.772398 0,-2.432324 1.19322,-3.864183 1.20239,-1.431859 3.22168,-1.431859 1.89079,0 2.99222,1.248287 1.10143,1.239109 1.10143,3.276754 l 0,0.963751 -6.92983,0 q 0.0459,1.771467 0.89032,2.689325 0.85361,0.917858 2.39561,0.917858 1.62461,0 3.2125,-0.679215 l 0,1.358431 q -0.80771,0.348786 -1.53282,0.495643 -0.71593,0.156036 -1.73475,0.156036 z m -0.41304,-9.151047 q -1.21157,0 -1.93668,0.789358 -0.71593,0.789358 -0.84443,2.184503 l 5.25933,0 q 0,-1.441038 -0.6425,-2.20286 -0.6425,-0.771001 -1.83572,-0.771001 z" /><path
         id="path5571"
         style="font-style:normal;font-variant:normal;font-weight:normal;font-stretch:normal;font-size:18.79773712px;font-family:'Open Sans';-inkscape-font-specification:'Open Sans'"
         d="m 222.01081,-39.966768 q 0.40386,0 0.78018,-0.05507 0.37632,-0.06425 0.59661,-0.128501 l 0,1.16568 q -0.24782,0.119322 -0.73429,0.192751 -0.47728,0.08261 -0.86278,0.08261 -2.91879,0 -2.91879,-3.074825 l 0,-5.984436 -1.44104,0 0,-0.734287 1.44104,-0.633322 0.6425,-2.147788 0.88114,0 0,2.33136 2.91879,0 0,1.184037 -2.91879,0 0,5.920186 q 0,0.908679 0.4314,1.395144 0.43139,0.486465 1.18403,0.486465 z" /><path
         id="path5573"
         style="font-style:normal;font-variant:normal;font-weight:normal;font-stretch:normal;font-size:18.79773712px;font-family:'Open Sans';-inkscape-font-specification:'Open Sans'"
         d="m 88.370656,-18.966171 q 0,1.771466 -1.285002,2.762753 -1.285001,0.991287 -3.487861,0.991287 -2.386432,0 -3.671433,-0.614965 l 0,-1.505287 q 0.826072,0.348786 1.799002,0.550715 0.97293,0.201928 1.927502,0.201928 1.560359,0 2.349718,-0.587429 0.789358,-0.596608 0.789358,-1.652145 0,-0.697572 -0.284536,-1.138144 -0.275358,-0.44975 -0.936216,-0.826072 -0.651679,-0.376322 -1.991752,-0.853609 -1.872431,-0.670036 -2.680146,-1.587894 -0.798537,-0.917859 -0.798537,-2.39561 0,-1.551181 1.16568,-2.469039 1.16568,-0.917858 3.084004,-0.917858 2.000931,0 3.680611,0.734286 l -0.486465,1.358431 q -1.661323,-0.697573 -3.230861,-0.697573 -1.239108,0 -1.936681,0.532358 -0.697572,0.532358 -0.697572,1.477752 0,0.697572 0.257001,1.147323 0.257,0.440572 0.862786,0.816893 0.614965,0.367144 1.872431,0.816894 2.111074,0.752644 2.900432,1.615431 0.798537,0.862787 0.798537,2.239574 z" /><path
         id="path5575"
         style="font-style:normal;font-variant:normal;font-weight:normal;font-stretch:normal;font-size:18.79773712px;font-family:'Open Sans';-inkscape-font-specification:'Open Sans'"
         d="m 97.071952,-15.395702 -0.302893,-1.431859 -0.07343,0 q -0.752644,0.945394 -1.505287,1.285001 -0.743466,0.330429 -1.863253,0.330429 -1.496109,0 -2.349717,-0.771001 -0.844429,-0.771001 -0.844429,-2.193681 0,-3.047289 4.873827,-3.194147 l 1.707216,-0.05507 0,-0.624144 q 0,-1.184037 -0.514,-1.74393 -0.504822,-0.569073 -1.624609,-0.569073 -1.257466,0 -2.845361,0.771001 l -0.468108,-1.16568 q 0.743465,-0.403857 1.624609,-0.633322 0.890323,-0.229464 1.780645,-0.229464 1.799003,0 2.661789,0.798536 0.871966,0.798537 0.871966,2.560825 l 0,6.86558 -1.128966,0 z m -3.441968,-1.073895 q 1.42268,0 2.230395,-0.780179 0.816894,-0.78018 0.816894,-2.184503 l 0,-0.908679 -1.523645,0.06425 q -1.817359,0.06425 -2.625074,0.569072 -0.798537,0.495643 -0.798537,1.55118 0,0.826073 0.495643,1.257466 0.504822,0.431393 1.404324,0.431393 z" /><path
         id="path5577"
         style="font-style:normal;font-variant:normal;font-weight:normal;font-stretch:normal;font-size:18.79773712px;font-family:'Open Sans';-inkscape-font-specification:'Open Sans'"
         d="m 108.23311,-15.395702 0,-6.507615 q 0,-1.22993 -0.55989,-1.835717 -0.5599,-0.605786 -1.75311,-0.605786 -1.57872,0 -2.31301,0.853608 -0.73428,0.853608 -0.73428,2.817825 l 0,5.277685 -1.52365,0 0,-10.059727 1.23911,0 0.24782,1.376788 0.0734,0 q 0.46811,-0.743466 1.31254,-1.147323 0.84443,-0.413037 1.88161,-0.413037 1.81736,0 2.73522,0.881144 0.91785,0.871966 0.91785,2.799468 l 0,6.562687 -1.52364,0 z" /><path
         id="path5579"
         style="font-style:normal;font-variant:normal;font-weight:normal;font-stretch:normal;font-size:18.79773712px;font-family:'Open Sans';-inkscape-font-specification:'Open Sans'"
         d="m 119.5503,-15.395702 -1.56036,0 0,-13.419088 7.48055,0 0,1.385966 -5.92019,0 0,4.910542 5.56222,0 0,1.385966 -5.56222,0 0,5.736614 z" /><path
         id="path5581"
         style="font-style:normal;font-variant:normal;font-weight:normal;font-stretch:normal;font-size:18.79773712px;font-family:'Open Sans';-inkscape-font-specification:'Open Sans'"
         d="m 132.04235,-25.639001 q 0.67004,0 1.2024,0.110143 l -0.21111,1.413502 q -0.62414,-0.137679 -1.10143,-0.137679 -1.22075,0 -2.09272,0.991287 -0.86278,0.991287 -0.86278,2.469039 l 0,5.397007 -1.52365,0 0,-10.059727 1.25747,0 0.17439,1.863252 0.0734,0 q 0.55989,-0.982108 1.34925,-1.514466 0.78936,-0.532358 1.73475,-0.532358 z" /><path
         id="path5583"
         style="font-style:normal;font-variant:normal;font-weight:normal;font-stretch:normal;font-size:18.79773712px;font-family:'Open Sans';-inkscape-font-specification:'Open Sans'"
         d="m 141.31272,-15.395702 -0.30289,-1.431859 -0.0734,0 q -0.75265,0.945394 -1.50529,1.285001 -0.74346,0.330429 -1.86325,0.330429 -1.49611,0 -2.34972,-0.771001 -0.84443,-0.771001 -0.84443,-2.193681 0,-3.047289 4.87383,-3.194147 l 1.70722,-0.05507 0,-0.624144 q 0,-1.184037 -0.514,-1.74393 -0.50483,-0.569073 -1.62461,-0.569073 -1.25747,0 -2.84536,0.771001 l -0.46811,-1.16568 q 0.74346,-0.403857 1.62461,-0.633322 0.89032,-0.229464 1.78064,-0.229464 1.799,0 2.66179,0.798536 0.87197,0.798537 0.87197,2.560825 l 0,6.86558 -1.12897,0 z m -3.44197,-1.073895 q 1.42268,0 2.2304,-0.780179 0.81689,-0.78018 0.81689,-2.184503 l 0,-0.908679 -1.52364,0.06425 q -1.81736,0.06425 -2.62508,0.569072 -0.79853,0.495643 -0.79853,1.55118 0,0.826073 0.49564,1.257466 0.50482,0.431393 1.40432,0.431393 z" /><path
         id="path5585"
         style="font-style:normal;font-variant:normal;font-weight:normal;font-stretch:normal;font-size:18.79773712px;font-family:'Open Sans';-inkscape-font-specification:'Open Sans'"
         d="m 152.47388,-15.395702 0,-6.507615 q 0,-1.22993 -0.5599,-1.835717 -0.55989,-0.605786 -1.75311,-0.605786 -1.57871,0 -2.313,0.853608 -0.73428,0.853608 -0.73428,2.817825 l 0,5.277685 -1.52365,0 0,-10.059727 1.23911,0 0.24782,1.376788 0.0734,0 q 0.46811,-0.743466 1.31254,-1.147323 0.84443,-0.413037 1.88161,-0.413037 1.81736,0 2.73521,0.881144 0.91786,0.871966 0.91786,2.799468 l 0,6.562687 -1.52364,0 z" /><path
         id="path5587"
         style="font-style:normal;font-variant:normal;font-weight:normal;font-stretch:normal;font-size:18.79773712px;font-family:'Open Sans';-inkscape-font-specification:'Open Sans'"
         d="m 161.13846,-15.212131 q -2.18451,0 -3.3869,-1.340073 -1.19322,-1.349251 -1.19322,-3.809112 0,-2.52411 1.21158,-3.900897 1.22075,-1.376788 3.4695,-1.376788 0.72511,0 1.45022,0.156036 0.72511,0.156036 1.13814,0.367144 l -0.46811,1.29418 q -0.50482,-0.201929 -1.10143,-0.330429 -0.5966,-0.137679 -1.05553,-0.137679 -3.06565,0 -3.06565,3.910076 0,1.854074 0.74347,2.845361 0.75264,0.991287 2.22121,0.991287 1.25747,0 2.57918,-0.541537 l 0,1.349252 q -1.00964,0.523179 -2.54246,0.523179 z" /><path
         id="path5589"
         style="font-style:normal;font-variant:normal;font-weight:normal;font-stretch:normal;font-size:18.79773712px;font-family:'Open Sans';-inkscape-font-specification:'Open Sans'"
         d="m 167.60018,-15.395702 -1.52364,0 0,-10.059727 1.52364,0 0,10.059727 z m -1.65214,-12.785766 q 0,-0.523179 0.257,-0.761822 0.257,-0.247822 0.6425,-0.247822 0.36714,0 0.63332,0.247822 0.26618,0.247821 0.26618,0.761822 0,0.514001 -0.26618,0.771001 -0.26618,0.247822 -0.63332,0.247822 -0.3855,0 -0.6425,-0.247822 -0.257,-0.257 -0.257,-0.771001 z" /><path
         id="path5591"
         style="font-style:normal;font-variant:normal;font-weight:normal;font-stretch:normal;font-size:18.79773712px;font-family:'Open Sans';-inkscape-font-specification:'Open Sans'"
         d="m 177.33866,-18.140099 q 0,1.404324 -1.04636,2.166146 -1.04636,0.761822 -2.93715,0.761822 -2.00093,0 -3.12071,-0.633322 l 0,-1.413502 q 0.7251,0.367144 1.55118,0.578251 0.83525,0.211107 1.60625,0.211107 1.19321,0 1.83572,-0.376321 0.6425,-0.385501 0.6425,-1.16568 0,-0.58743 -0.514,-1.000466 -0.50483,-0.422215 -1.98258,-0.991287 -1.40432,-0.523179 -2.00093,-0.908679 -0.58743,-0.39468 -0.88114,-0.890323 -0.28454,-0.495643 -0.28454,-1.184037 0,-1.22993 1.00047,-1.936681 1.00046,-0.71593 2.74439,-0.71593 1.62461,0 3.17579,0.660858 l -0.54153,1.239109 q -1.51447,-0.624144 -2.7444,-0.624144 -1.08307,0 -1.63379,0.339608 -0.55071,0.339608 -0.55071,0.936215 0,0.403858 0.20193,0.688394 0.2111,0.284536 0.67003,0.541537 0.45893,0.257 1.76229,0.743465 1.78982,0.651679 2.41397,1.312537 0.63332,0.660858 0.63332,1.661323 z" /><path
         id="path5593"
         style="font-style:normal;font-variant:normal;font-weight:normal;font-stretch:normal;font-size:18.79773712px;font-family:'Open Sans';-inkscape-font-specification:'Open Sans'"
         d="m 183.82791,-15.212131 q -2.1845,0 -3.3869,-1.340073 -1.19321,-1.349251 -1.19321,-3.809112 0,-2.52411 1.21157,-3.900897 1.22075,-1.376788 3.4695,-1.376788 0.72511,0 1.45022,0.156036 0.72511,0.156036 1.13815,0.367144 l -0.46811,1.29418 q -0.50482,-0.201929 -1.10143,-0.330429 -0.59661,-0.137679 -1.05554,-0.137679 -3.06565,0 -3.06565,3.910076 0,1.854074 0.74347,2.845361 0.75264,0.991287 2.22122,0.991287 1.25746,0 2.57918,-0.541537 l 0,1.349252 q -1.00965,0.523179 -2.54247,0.523179 z" /><path
         id="path5595"
         style="font-style:normal;font-variant:normal;font-weight:normal;font-stretch:normal;font-size:18.79773712px;font-family:'Open Sans';-inkscape-font-specification:'Open Sans'"
         d="m 197.44893,-20.434744 q 0,2.45986 -1.23911,3.845826 -1.23911,1.376787 -3.42361,1.376787 -1.34925,0 -2.39561,-0.633322 -1.04636,-0.633322 -1.61543,-1.817359 -0.56907,-1.184037 -0.56907,-2.771932 0,-2.45986 1.22993,-3.827469 1.22993,-1.376788 3.41443,-1.376788 2.11107,0 3.35018,1.404324 1.24829,1.404323 1.24829,3.799933 z m -7.66412,0 q 0,1.927502 0.771,2.937146 0.771,1.009644 2.26711,1.009644 1.49611,0 2.26711,-1.000465 0.78018,-1.009644 0.78018,-2.946325 0,-1.918324 -0.78018,-2.909611 -0.771,-1.000465 -2.28546,-1.000465 -1.49611,0 -2.25794,0.982108 -0.76182,0.982108 -0.76182,2.927968 z" /><path
         id="path5597"
         style="font-style:normal;font-variant:normal;font-weight:normal;font-stretch:normal;font-size:18.79773712px;font-family:'Open Sans';-inkscape-font-specification:'Open Sans'"
         d="m 201.7078,-17.580205 0.13768,0.211107 q -0.23865,0.917859 -0.6884,2.129432 -0.44975,1.220751 -0.93621,2.267109 l -1.14733,0 q 0.24783,-0.954572 0.54154,-2.358895 0.30289,-1.404323 0.42221,-2.248753 l 1.67051,0 z" /><path
         id="path5599"
         style="font-style:normal;font-variant:normal;font-weight:normal;font-stretch:normal;font-size:18.79773712px;font-family:'Open Sans';-inkscape-font-specification:'Open Sans'"
         d="m 215.59499,-27.612396 q -2.21204,0 -3.49704,1.477752 -1.27582,1.468573 -1.27582,4.029398 0,2.634253 1.22993,4.07529 1.23911,1.431859 3.52457,1.431859 1.40433,0 3.20333,-0.504822 l 0,1.367609 q -1.39515,0.523179 -3.44197,0.523179 -2.96468,0 -4.58011,-1.799002 -1.60625,-1.799002 -1.60625,-5.11247 0,-2.07436 0.771,-3.634719 0.78018,-1.560359 2.23957,-2.404789 1.46857,-0.844429 3.45115,-0.844429 2.11107,0 3.68979,0.771001 l -0.66086,1.340073 q -1.52364,-0.71593 -3.04729,-0.71593 z" /><path
         id="path5601"
         style="font-style:normal;font-variant:normal;font-weight:normal;font-stretch:normal;font-size:18.79773712px;font-family:'Open Sans';-inkscape-font-specification:'Open Sans'"
         d="m 230.14305,-15.395702 -1.6705,-4.268041 -5.37865,0 -1.65215,4.268041 -1.57871,0 5.30522,-13.47416 1.31254,0 5.27768,13.47416 -1.61543,0 z m -2.15697,-5.672364 -1.56036,-4.157898 q -0.30289,-0.789358 -0.62414,-1.936681 -0.20193,0.881144 -0.57825,1.936681 l -1.57872,4.157898 4.34147,0 z" /><path
         id="path5603"
         style="font-style:normal;font-variant:normal;font-weight:normal;font-stretch:normal;font-size:18.79773712px;font-family:'Open Sans';-inkscape-font-specification:'Open Sans'"
         d="m 246.37996,-23.087355 q 0,7.875224 -6.09458,7.875224 -1.06472,0 -1.68886,-0.183571 l 0,-1.312538 q 0.73428,0.238643 1.6705,0.238643 2.20286,0 3.32265,-1.35843 1.12896,-1.367609 1.22993,-4.185433 l -0.11015,0 q -0.50482,0.761822 -1.34007,1.16568 -0.83525,0.394679 -1.88161,0.394679 -1.78064,0 -2.827,-1.064716 -1.04636,-1.064716 -1.04636,-2.973861 0,-2.092717 1.16568,-3.304289 1.17486,-1.211573 3.084,-1.211573 1.36761,0 2.38643,0.706751 1.02801,0.697572 1.57872,2.046823 0.55072,1.340074 0.55072,3.166611 z m -4.51587,-4.616827 q -1.31253,0 -2.02846,0.84443 -0.71593,0.84443 -0.71593,2.349717 0,1.321716 0.66085,2.083538 0.66086,0.752644 2.01011,0.752644 0.83526,0 1.53283,-0.339607 0.70675,-0.339608 1.11061,-0.927037 0.40385,-0.58743 0.40385,-1.22993 0,-0.963751 -0.37632,-1.780645 -0.37632,-0.816894 -1.05554,-1.285002 -0.67003,-0.468108 -1.542,-0.468108 z" /><path
         id="path5605"
         style="font-style:normal;font-variant:normal;font-weight:normal;font-stretch:normal;font-size:18.79773712px;font-family:'Open Sans';-inkscape-font-specification:'Open Sans'"
         d="m 257.77057,-18.479706 -1.99175,0 0,3.084004 -1.4594,0 0,-3.084004 -6.52597,0 0,-1.330895 6.36994,-9.077618 1.61543,0 0,9.022547 1.99175,0 0,1.385966 z m -3.45115,-1.385966 0,-4.460791 q 0,-1.312538 0.0918,-2.964682 l -0.0734,0 q -0.44057,0.881144 -0.82607,1.459394 l -4.19461,5.966079 5.00232,0 z" /><path
         id="path5607"
         style="font-style:normal;font-variant:normal;font-weight:normal;font-stretch:normal;font-size:18.79773712px;font-family:'Open Sans';-inkscape-font-specification:'Open Sans'"
         d="m 264.71877,-15.395702 -1.48693,0 0,-9.564083 q 0,-1.193216 0.0734,-2.257932 -0.19275,0.192751 -0.4314,0.403858 -0.23864,0.211107 -2.1845,1.789824 l -0.80771,-1.046359 3.55211,-2.744396 1.285,0 0,13.419088 z" /><path
         id="path5609"
         style="font-style:normal;font-variant:normal;font-weight:normal;font-stretch:normal;font-size:18.79773712px;font-family:'Open Sans';-inkscape-font-specification:'Open Sans'"
         d="m 275.47606,-15.395702 -1.48693,0 0,-9.564083 q 0,-1.193216 0.0734,-2.257932 -0.19275,0.192751 -0.43139,0.403858 -0.23865,0.211107 -2.18451,1.789824 l -0.80771,-1.046359 3.55211,-2.744396 1.285,0 0,13.419088 z" /><path
         id="path5611"
         style="font-style:normal;font-variant:normal;font-weight:normal;font-stretch:normal;font-size:18.79773712px;font-family:'Open Sans';-inkscape-font-specification:'Open Sans'"
         d="m 290.04247,-18.479706 -1.99175,0 0,3.084004 -1.4594,0 0,-3.084004 -6.52597,0 0,-1.330895 6.36993,-9.077618 1.61544,0 0,9.022547 1.99175,0 0,1.385966 z m -3.45115,-1.385966 0,-4.460791 q 0,-1.312538 0.0918,-2.964682 l -0.0734,0 q -0.44057,0.881144 -0.82607,1.459394 l -4.19462,5.966079 5.00233,0 z" /></g><path
       id="path3510"
       d="m 392.63144,-118.84836 c 0.41286,1.90947 1.75464,3.56089 3.35446,4.69625 1.65143,1.08376 3.56089,1.70304 5.52196,2.01269 1.23858,0.20642 2.52876,0.30964 3.66412,-0.15482 1.23857,-0.46447 2.21911,-1.445 2.99322,-2.52876 2.68356,-3.61249 3.81892,-8.41196 2.9416,-12.85017"
       stroke-miterlimit="10"
       style="fill:none;stroke:#000000;stroke-width:1.03214288;stroke-miterlimit:10" /><path
       id="path3512"
       d="m 405.48162,-130.56316 c 0.56768,2.2707 1.13536,4.54141 1.70304,6.81214 0.10321,0.41285 0.20643,0.8257 0.0516,1.18695 -0.15482,0.36126 -0.51608,0.56769 -0.92893,0.61928 -0.36125,0.0516 -0.7741,0 -1.13536,-0.0516 -0.36125,-0.0516 -0.7225,-0.10322 -1.08374,-0.15482 -0.46448,-0.0516 -0.92894,-0.15483 -1.39341,-0.36126 -0.41284,-0.20642 -0.7741,-0.61928 -0.7741,-1.13536 0,-0.51607 0.41286,-0.98053 0.87732,-0.87731"
       stroke-miterlimit="10"
       style="fill:none;stroke:#000000;stroke-width:1.03214288;stroke-linecap:round;stroke-miterlimit:10" /><path
       id="circle3514"
       d="m 400.11448,-130.09871 a 0.82571424,0.82571424 0 0 1 -0.82571,0.82573 0.82571424,0.82571424 0 0 1 -0.82572,-0.82573 0.82571424,0.82571424 0 0 1 0.82572,-0.8257 0.82571424,0.82571424 0 0 1 0.82571,0.8257 z"
       style="fill:none;stroke:#000000;stroke-width:1.03214288;stroke-miterlimit:10" /><path
       id="circle3516"
       d="m 409.91983,-130.09871 a 0.82571424,0.82571424 0 0 1 -0.82571,0.82573 0.82571424,0.82571424 0 0 1 -0.82572,-0.82573 0.82571424,0.82571424 0 0 1 0.82572,-0.8257 0.82571424,0.82571424 0 0 1 0.82571,0.8257 z"
       style="fill:none;stroke:#000000;stroke-width:1.03214288;stroke-miterlimit:10" /><path
       id="path3518"
       d="m 395.8827,-131.4405 c 0.82572,-0.7741 1.90945,-1.29018 3.04481,-1.39338 1.13536,-0.10322 2.27071,0.15483 3.25126,0.77411"
       stroke-miterlimit="10"
       style="fill:none;stroke:#000000;stroke-width:1.03214288;stroke-miterlimit:10" /><path
       id="path3520"
       d="m 411.98412,-130.92441 c -0.82572,-0.77411 -1.90947,-1.29019 -3.04483,-1.3934 -1.13536,-0.10323 -2.27072,0.15482 -3.25125,0.7741"
       stroke-miterlimit="10"
       style="fill:none;stroke:#000000;stroke-width:1.03214288;stroke-miterlimit:10" /><path
       id="path3522"
       d="m 399.80484,-119.46763 c 2.63195,-0.25805 5.31553,-0.10322 7.89589,0.41284"
       stroke-miterlimit="10"
       style="fill:none;stroke:#000000;stroke-width:1.03214288;stroke-miterlimit:10" /><path
       id="path3524"
       d="m 403.62376,-117.66138 c 0.30964,-0.0516 0.6709,-0.10322 0.98054,-0.15482"
       stroke-miterlimit="10"
       style="fill:none;stroke:#000000;stroke-width:1.03214288;stroke-linecap:round;stroke-miterlimit:10" /><path
       id="path3526"
       d="m 387.10947,-123.59621 -6.45089,0 c -0.7741,0 -1.39339,-0.61929 -1.39339,-1.3934 0,-0.77409 0.61929,-1.39337 1.39339,-1.39337 0.30964,0 0.56768,-0.25805 0.56768,-0.5677 0,-0.30964 -0.25804,-0.56766 -0.56768,-0.56766 -1.39339,0 -2.47714,1.13536 -2.47714,2.47714 0,1.39339 1.13536,2.47713 2.47714,2.47713 l 6.45089,0 c 0.30964,0 0.56769,-0.25803 0.56769,-0.56768 0,-0.20642 -0.25805,-0.46446 -0.56769,-0.46446 z" /><path
       id="path3528"
       d="m 391.5993,-126.69264 -5.52197,0 c -0.56768,0 -1.08375,-0.46445 -1.08375,-1.08375 0,-0.61929 0.46446,-1.08375 1.08375,-1.08375 0.25804,0 0.41285,-0.20643 0.41285,-0.41284 0,-0.20644 -0.20642,-0.41287 -0.41285,-0.41287 -1.08375,0 -1.90947,0.87733 -1.90947,1.90946 0,1.03214 0.87733,1.90947 1.90947,1.90947 l 5.52197,0 c 0.25804,0 0.41286,-0.20642 0.41286,-0.41287 0,-0.20641 -0.20644,-0.41285 -0.41286,-0.41285 z" /><path
       id="path3530"
       d="m 411.62287,-123.18335 5.00589,0 c 0.56768,0 1.08375,-0.46446 1.08375,-1.08374 0,-0.6193 -0.46446,-1.08377 -1.08375,-1.08377 -0.25804,0 -0.41286,-0.20642 -0.41286,-0.41284 0,-0.20644 0.20643,-0.41286 0.41286,-0.41286 1.08375,0 1.90946,0.87731 1.90946,1.90947 0,1.03213 -0.87732,1.90946 -1.90946,1.90946 l -5.00589,0 c -0.25804,0 -0.41286,-0.20644 -0.41286,-0.41286 0,-0.20643 0.20643,-0.41286 0.41286,-0.41286 z" /><path
       id="path3532"
       d="m 390.77359,-133.29835 -5.0059,0 c -0.56768,0 -1.08376,-0.46446 -1.08376,-1.08375 0,-0.56767 0.46447,-1.08375 1.08376,-1.08375 0.25804,0 0.41286,-0.20643 0.41286,-0.41285 0,-0.25804 -0.20644,-0.41287 -0.41286,-0.41287 -1.08376,0 -1.90947,0.87733 -1.90947,1.90947 0,1.08375 0.87733,1.90946 1.90947,1.90946 l 5.0059,0 c 0.25803,0 0.41285,-0.20641 0.41285,-0.41286 0,-0.25803 -0.15482,-0.41285 -0.41285,-0.41285 z" /><path
       id="path3534"
       d="m 391.39287,-137.78817 -9.65054,0 c -0.56767,0 -1.08375,-0.46447 -1.08375,-1.08375 0,-0.56767 0.46446,-1.08374 1.08375,-1.08374 0.25804,0 0.41287,-0.20645 0.41287,-0.41287 0,-0.20642 -0.20644,-0.41285 -0.41287,-0.41285 -1.08375,0 -1.90946,0.87732 -1.90946,1.90946 0,1.03215 0.87733,1.90945 1.90946,1.90945 l 9.65054,0 c 0.25803,0 0.41285,-0.20641 0.41285,-0.41284 0,-0.20644 -0.15482,-0.41286 -0.41285,-0.41286 z" /><path
       id="path3536"
       d="m 392.68305,-140.47174 -5.00589,0 c -0.56769,0 -1.08376,-0.46446 -1.08376,-1.08375 0,-0.56769 0.46446,-1.08375 1.08376,-1.08375 0.25802,0 0.41285,-0.20642 0.41285,-0.41286 0,-0.25803 -0.20642,-0.41286 -0.41285,-0.41286 -1.08376,0 -1.90947,0.87732 -1.90947,1.90947 0,1.03214 0.87731,1.90947 1.90947,1.90947 l 5.00589,0 c 0.25803,0 0.41285,-0.20644 0.41285,-0.41286 0,-0.25805 -0.15482,-0.41286 -0.41285,-0.41286 z" /><path
       id="path3538"
       d="m 385.30322,-131.80174 -5.00589,0 c -0.56767,0 -1.08375,-0.46447 -1.08375,-1.08376 0,-0.56767 0.46446,-1.08374 1.08375,-1.08374 0.25804,0 0.41287,-0.20643 0.41287,-0.41286 0,-0.25803 -0.20644,-0.41285 -0.41287,-0.41285 -1.08375,0 -1.90946,0.87731 -1.90946,1.90945 0,1.08376 0.87732,1.90947 1.90946,1.90947 l 5.00589,0 c 0.25805,0 0.41287,-0.20643 0.41287,-0.41285 0,-0.20644 -0.20644,-0.41286 -0.41287,-0.41286 z" /><path
       id="path3540"
       d="m 395.10858,-146.40655 c 0.77412,-0.92894 1.96107,-1.44501 3.19965,-1.49662 1.18696,-0.0516 2.42554,0.25803 3.50927,0.7225 0.72252,0.30964 1.445,0.67089 2.0643,1.03214 2.78677,1.65144 4.95429,4.18018 6.60571,6.91536 1.3934,2.32232 2.47714,4.79947 3.50929,7.2766 0.72249,1.75465 1.18696,2.89 1.90946,4.59305"
       stroke-miterlimit="10"
       style="fill:none;stroke:#000000;stroke-width:1.03214288;stroke-linecap:round;stroke-miterlimit:10" /><path
       id="path3542"
       d="m 392.78626,-135.31103 c 0,-2.01267 1.13535,-4.28339 2.83839,-5.67679 1.49661,-1.29017 3.81894,-1.34177 5.88321,-1.39338 1.70305,0 3.45769,-0.0516 5.10912,0.41285 1.65142,0.41286 3.19964,1.3934 3.87053,2.78678"
       stroke-miterlimit="10"
       style="fill:none;stroke:#000000;stroke-width:1.03214288;stroke-linecap:round;stroke-miterlimit:10" /><path
       id="line3544"
       d="m 389.01894,-122.87371 -6.65732,14.14036"
       style="fill:none;stroke:#000000;stroke-width:1.03214288;stroke-miterlimit:10" /><path
       id="line3546"
       d="m 405.3268,-111.57175 0.41286,3.5093"
       style="fill:none;stroke:#000000;stroke-width:1.03214288;stroke-miterlimit:10" /><path
       id="line3548"
       d="m 405.73966,-108.06245 4.95428,3.56088"
       style="fill:none;stroke:#000000;stroke-width:1.03214288;stroke-miterlimit:10" /><path
       id="path3550"
       d="m 387.41911,-119.72568 c 4.12858,11.81804 18.32055,11.71482 18.32055,11.71482"
       stroke-miterlimit="10"
       style="fill:none;stroke:#000000;stroke-width:1.03214288;stroke-miterlimit:10" /></g></svg>