<?xml version="1.0" encoding="UTF-8" standalone="no"?>
<svg
   xmlns:dc="http://purl.org/dc/elements/1.1/"
   xmlns:cc="http://creativecommons.org/ns#"
   xmlns:rdf="http://www.w3.org/1999/02/22-rdf-syntax-ns#"
   xmlns:svg="http://www.w3.org/2000/svg"
   xmlns="http://www.w3.org/2000/svg"
   xmlns:sodipodi="http://sodipodi.sourceforge.net/DTD/sodipodi-0.dtd"
   xmlns:inkscape="http://www.inkscape.org/namespaces/inkscape"
   version="1.1"
   x="0px"
   y="0px"
   viewBox="0 0 201.76012 201.76008"
   xml:space="preserve"
   id="svg3685"
   inkscape:version="0.91 r13725"
   sodipodi:docname="quarter.svg"
   width="56.941189mm"
   height="56.941177mm"><metadata
     id="metadata3697"><rdf:RDF><cc:Work
         rdf:about=""><dc:format>image/svg+xml</dc:format><dc:type
           rdf:resource="http://purl.org/dc/dcmitype/StillImage" /><dc:title /></cc:Work></rdf:RDF></metadata><defs
     id="defs3695" /><sodipodi:namedview
     pagecolor="#ffffff"
     bordercolor="#666666"
     borderopacity="1"
     objecttolerance="10"
     gridtolerance="10"
     guidetolerance="10"
     inkscape:pageopacity="0"
     inkscape:pageshadow="2"
     inkscape:window-width="956"
     inkscape:window-height="1041"
     id="namedview3693"
     showgrid="false"
     inkscape:zoom="1.8101934"
     inkscape:cx="105.25917"
     inkscape:cy="205.14267"
     inkscape:window-x="4800"
     inkscape:window-y="18"
     inkscape:window-maximized="0"
     inkscape:current-layer="layer1"
     fit-margin-top="0"
     fit-margin-left="0"
     fit-margin-right="0"
     fit-margin-bottom="0"
     showguides="false"
     units="mm" /><path
     d="M 100.88006,0 C 45.165119,0 0,45.16512 0,100.88005 c 0,55.71713 45.165119,100.88003 100.88006,100.88003 55.71719,0 100.88006,-45.1629 100.88006,-100.88003 C 201.76012,45.16512 156.59725,0 100.88006,0 Z m 62.77206,173.94858 -4.293,-5.118 c -0.56716,0.491 -1.12988,0.9819 -1.70826,1.4549 l 4.29526,5.1203 c -3.74826,3.0757 -7.73415,5.8622 -11.91954,8.3596 l -3.34251,-5.7928 c -0.64338,0.3811 -1.29574,0.7532 -1.9481,1.1164 l 3.34474,5.7928 c -4.21006,2.3785 -8.61292,4.4476 -13.18391,6.1783 l -2.29333,-6.3016 c -0.69943,0.2645 -1.40112,0.5156 -2.10727,0.7644 l 2.29109,6.3039 c -4.54184,1.6029 -9.24284,2.8627 -14.06268,3.7729 l -1.1702,-6.6177 c -0.73531,0.1389 -1.46614,0.2735 -2.20591,0.3968 l 1.16796,6.6155 c -4.7324,0.7756 -9.57463,1.1993 -14.51328,1.2576 l 0,-6.7253 c -0.37661,0 -0.7465,0.025 -1.12312,0.025 -0.37438,0 -0.74652,-0.027 -1.120893,-0.031 l 0,6.7253 c -4.936401,-0.054 -9.785365,-0.482 -14.520005,-1.2599 l 1.167969,-6.6177 c -0.739786,-0.1189 -1.472845,-0.2534 -2.205914,-0.3946 l -1.165721,6.6155 c -4.826556,-0.9057 -9.525323,-2.1723 -14.069408,-3.7707 l 2.293341,-6.3039 c -0.706161,-0.2443 -1.407833,-0.4999 -2.105031,-0.7644 l -2.293341,6.3039 c -4.573228,-1.7284 -8.976083,-3.8043 -13.186141,-6.1783 l 3.344733,-5.7973 c -0.652355,-0.3632 -1.302471,-0.7353 -1.943621,-1.1164 l -3.344737,5.7928 c -4.185401,-2.4907 -8.173525,-5.2794 -11.921779,-8.3597 l 4.29749,-5.1202 c -0.578378,-0.473 -1.138822,-0.9707 -1.705992,-1.4549 l -4.295249,5.118 c -3.683244,-3.1699 -7.122132,-6.6065 -10.289766,-10.2942 l 5.115739,-4.293 c -0.486467,-0.565 -0.981899,-1.1254 -1.454914,-1.706 l -5.120222,4.2952 c -3.075721,-3.7482 -5.866737,-7.7341 -8.357355,-11.9195 l 5.79276,-3.34251 c -0.381104,-0.64339 -0.750997,-1.29125 -1.11865,-1.94361 l -5.792757,3.34473 c -2.376286,-4.21455 -4.44769,-8.61739 -6.178344,-13.18838 l 6.301642,-2.28886 c -0.264531,-0.69933 -0.515609,-1.40549 -0.764445,-2.10942 l -6.303884,2.29335 c -1.59839,-4.54406 -2.8605101,-9.24284 -3.7684305,-14.0649 L 12.782623,117.553 c -0.13899,-0.7353 -0.275739,-1.4706 -0.394553,-2.20814 l -6.6154894,1.16795 c -0.7756561,-4.7279 -1.2015926,-9.57462 -1.25988,-14.50877 l 6.7253374,0 c -0.0044,-0.37438 -0.02914,-0.74651 -0.02914,-1.12314 0,-0.37437 0.02464,-0.7465 0.02914,-1.12088 l -6.7253374,0 c 0.056044,-4.93417 0.4819837,-9.77641 1.257638,-14.5088 l 6.6154884,1.16796 c 0.121062,-0.74203 0.257806,-1.47509 0.394554,-2.21039 L 6.1648921,83.04307 c 0.90792,-4.82431 2.1700427,-9.52308 3.7684304,-14.06493 l 6.3038835,2.29334 c 0.246595,-0.70616 0.499917,-1.41232 0.764446,-2.10951 l -6.30164,-2.29334 c 1.730653,-4.57323 3.802056,-8.97384 6.178342,-13.18615 l 5.792758,3.34474 c 0.367651,-0.6546 0.737545,-1.30472 1.120891,-1.94587 l -5.79276,-3.34473 c 2.49286,-4.1854 5.281634,-8.17353 8.357355,-11.92178 l 5.120222,4.29749 c 0.473015,-0.57838 0.968447,-1.13882 1.454914,-1.70599 l -5.117979,-4.29525 c 3.169874,-3.68324 6.608762,-7.12213 10.292006,-10.29201 l 4.295249,5.11799 c 0.56717,-0.48872 1.127614,-0.98191 1.705992,-1.45716 l -4.29749,-5.12023 c 3.746011,-3.07796 7.736378,-5.86673 11.921779,-8.35735 l 3.344732,5.79276 c 0.641155,-0.38335 1.293509,-0.751 1.943621,-1.11865 l -3.344733,-5.79356 c 4.212304,-2.37633 8.61516,-4.44774 13.188389,-6.17839 l 2.29334,6.30164 c 0.69943,-0.26453 1.401117,-0.51561 2.107268,-0.7622 L 68.970573,9.94005 C 73.514656,8.34166 78.215666,7.07729 83.039975,6.16937 l 1.167968,6.61549 c 0.73306,-0.13899 1.468365,-0.2735 2.208151,-0.39455 L 85.248126,5.77482 C 89.980524,4.99916 94.825008,4.57323 99.761408,4.51494 l 0,6.72534 c 0.372132,-0.007 0.744272,-0.0314 1.118652,-0.0314 0.37662,0 0.74651,0.0246 1.12088,0.0292 l 0,-6.72534 c 4.92967,0.056 9.76743,0.48198 14.49983,1.25764 l -1.16798,6.61549 c 0.73979,0.12106 1.47511,0.25556 2.21041,0.39455 l 1.16796,-6.61549 c 4.82207,0.90568 9.52307,2.17004 14.06491,3.76843 l -2.29332,6.30388 c 0.7084,0.2466 1.41455,0.49992 2.11398,0.76445 l 2.28886,-6.30164 c 4.57324,1.73065 8.97384,3.80206 13.18615,6.1761 l -3.3425,5.79276 c 0.65236,0.36765 1.30472,0.73754 1.94811,1.12088 l 3.3425,-5.79275 c 4.18316,2.49062 8.17353,5.27939 11.91956,8.35735 l -4.2975,5.12023 c 0.58287,0.47525 1.14555,0.97068 1.71271,1.45939 l 4.29526,-5.12022 c 3.68773,3.16987 7.12436,6.60876 10.29199,10.28976 l -5.11573,4.29525 c 0.49095,0.56717 0.98189,1.12762 1.45715,1.70824 l 5.118,-4.29749 c 3.07796,3.74601 5.86672,7.73414 8.35957,11.91954 l -5.79275,3.34473 c 0.38561,0.64339 0.75325,1.29351 1.1209,1.94811 l 5.79274,-3.34474 c 2.37853,4.21006 4.4477,8.61292 6.17836,13.1839 l -6.30164,2.29334 c 0.26453,0.69944 0.5156,1.40336 0.76444,2.11176 l 6.30389,-2.29334 c 1.60062,4.54409 2.86274,9.24285 3.77291,14.06492 l -6.61774,1.16797 c 0.13899,0.7353 0.27351,1.47061 0.3968,2.21263 l 6.61549,-1.16796 c 0.77566,4.73015 1.19936,9.57464 1.25763,14.50655 l -6.72533,0 c -0.003,0.37663 0.0246,0.74651 0.0246,1.12313 0,0.37663 -0.0269,0.74875 -0.0315,1.12538 l 6.72535,0 c -0.0539,4.93192 -0.48197,9.77639 -1.25988,14.51103 l -6.61325,-1.16796 c -0.12324,0.73977 -0.2578,1.47509 -0.3968,2.21039 l 6.61326,1.16797 c -0.90569,4.82206 -2.17228,9.52082 -3.77067,14.06491 l -6.30389,-2.29334 c -0.2466,0.70392 -0.50214,1.41233 -0.76445,2.10952 l 6.30165,2.29109 c -1.72842,4.57101 -3.79982,8.97385 -6.18058,13.18615 l -5.79275,-3.34473 c -0.36542,0.65235 -0.73306,1.30471 -1.11867,1.9481 l 5.79278,3.34018 c -2.49063,4.1854 -5.2794,8.1736 -8.35736,11.9196 l -5.12022,-4.2975 c -0.47527,0.5806 -0.97293,1.1411 -1.45716,1.7082 l 5.11575,4.293 c -3.15869,3.6878 -6.59532,7.1267 -10.28081,10.2965 z M 125.03074,14.52673 c -0.68598,-0.19056 -1.36077,-0.39007 -2.05347,-0.56493 l 0.94603,-3.53305 2.05347,0.547 z m -15.36291,-2.88517 c -0.69945,-0.0673 -1.41455,-0.10761 -2.11849,-0.16142 l 0.32057,-3.68324 2.11849,0.18383 z m 43.43671,16.36722 c -0.57614,-0.41248 -1.14779,-0.83394 -1.73065,-1.23297 l 2.10277,-3.00847 1.74188,1.21953 z m -13.43051,-7.99642 c -0.6389,-0.30713 -1.29574,-0.58511 -1.93913,-0.87654 l 1.54682,-3.33128 1.92794,0.89895 z m 25.29176,18.17186 c -0.49543,-0.50665 -0.99534,-1.00656 -1.50647,-1.49975 l 2.6072,-2.61167 1.50422,1.50199 z M 61.944834,20.08185 l -1.551312,-3.32007 1.921205,-0.89896 1.562523,3.3425 c -0.643392,0.29143 -1.29575,0.56941 -1.932416,0.87653 z m -13.417047,8.01885 -2.125204,-3.03089 1.737375,-1.21952 2.118483,3.01967 c -0.585104,0.40128 -1.156758,0.81601 -1.730654,1.23074 z M 91.933115,11.65501 91.608057,7.98746 93.71981,7.80139 94.047109,11.4936 c -0.703918,0.0538 -1.414568,0.0919 -2.113994,0.16141 z m -15.35843,2.91655 -0.95724,-3.55994 2.051229,-0.55373 0.950515,3.53978 c -0.688226,0.17485 -1.363005,0.3811 -2.044504,0.57389 z M 13.997669,123.14092 c 0.1771,0.68822 0.3811,1.363 0.573894,2.04899 l -3.573395,0.95948 -0.551478,-2.05572 z M 11.482391,94.20403 7.7789721,93.88346 7.9627988,91.76722 11.646042,92.08555 c -0.07174,0.70168 -0.109843,1.41232 -0.163651,2.11848 z m 2.481651,-15.4324 -3.553221,-0.94828 0.546994,-2.05123 3.571154,0.95276 c -0.190551,0.6815 -0.392312,1.35852 -0.564927,2.04675 z M 11.4936,107.71299 c 0.05156,0.70617 0.09192,1.41681 0.16141,2.11848 l -3.6787618,0.3273 -0.1860673,-2.11399 z m 7.644469,-43.69003 -3.349219,-1.55804 0.896711,-1.92568 3.3268,1.54907 c -0.304879,0.63442 -0.582863,1.28902 -0.874292,1.93465 z M 182.55703,63.87949 c -0.28919,-0.64563 -0.5694,-1.29799 -0.87878,-1.93466 l 3.30887,-1.54458 0.89897,1.92344 z m 7.70948,30.1721 c -0.0516,-0.70616 -0.0919,-1.4168 -0.16141,-2.12072 l 3.65635,-0.32282 0.1883,2.11848 z m -2.50183,-15.43016 c -0.17709,-0.68823 -0.38333,-1.36525 -0.57389,-2.04899 l 3.5465,-0.95276 0.55598,2.05347 z M 174.89465,50.25844 c -0.40353,-0.58511 -0.81827,-1.159 -1.23524,-1.7329 l 3.02193,-2.11623 1.21728,1.73961 z M 19.200838,137.87838 c 0.293672,0.64563 0.571654,1.29798 0.878777,1.93465 l -3.331284,1.55355 -0.898955,-1.9212 z m 163.418972,-0.13675 3.33576,1.55355 -0.89671,1.92343 -3.31559,-1.54234 c 0.30712,-0.63442 0.58287,-1.28677 0.87654,-1.93464 z m 5.17627,-14.75091 3.53305,0.94603 -0.547,2.05347 -3.55547,-0.95051 c 0.19503,-0.67703 0.39454,-1.35853 0.56942,-2.04899 z m 2.48166,-15.43241 3.68547,0.32283 -0.18381,2.11623 -3.66084,-0.31834 c 0.0671,-0.70391 0.10534,-1.41232 0.15918,-2.12072 z m -65.09456,79.63247 0.95723,3.5577 -2.04898,0.5515 -0.95051,-3.5376 c 0.68598,-0.1748 1.36076,-0.3811 2.04226,-0.5716 z m 14.62986,-5.5103 1.54906,3.3156 -1.92569,0.9012 -1.56027,-3.3358 c 0.64562,-0.2936 1.30021,-0.5739 1.9369,-0.881 z m -29.98604,8.4246 0.32729,3.6698 -2.11398,0.1838 -0.32732,-3.6899 c 0.70168,-0.054 1.41682,-0.094 2.11401,-0.1637 z m -17.750414,0.014 c 0.69943,0.065 1.407838,0.1098 2.113999,0.1592 l -0.322816,3.7056 -2.111762,-0.1771 z M 36.686711,38.2988 l -2.62288,-2.6184 1.499753,-1.50199 2.620637,2.61616 c -0.504402,0.49543 -1.004317,0.99759 -1.49751,1.50423 z m 128.386689,125.16748 2.61393,2.6094 -1.49976,1.5043 -2.61392,-2.6095 c 0.5044,-0.4977 1.00432,-0.9953 1.49975,-1.5042 z m -11.84332,10.1978 2.12072,3.0264 -1.73515,1.2218 -2.11174,-3.0174 c 0.57838,-0.4013 1.15228,-0.8205 1.72617,-1.2308 z m 21.752,-22.2877 3.01292,2.105 -1.21728,1.7419 -3.03087,-2.1163 c 0.41248,-0.5716 0.83393,-1.1433 1.23523,-1.7306 z M 26.77805,50.38616 23.75389,48.2744 l 1.217286,-1.73962 3.035369,2.12297 c -0.410247,0.57165 -0.827218,1.1433 -1.228495,1.72841 z m 21.873035,123.36282 c 0.573896,0.4148 1.143307,0.8295 1.728412,1.2285 l -2.120725,3.0354 -1.739617,-1.2128 z m 13.428257,7.992 c 0.636665,0.3071 1.289025,0.5851 1.932415,0.8765 l -1.562522,3.3582 -1.921205,-0.8922 z m 14.638818,5.4923 c 0.6815,0.1883 1.356278,0.3901 2.044503,0.565 l -0.950513,3.56 -2.048993,-0.5425 z m -49.850441,-35.7339 c 0.40128,0.5851 0.816007,1.1568 1.230738,1.7284 l -3.042094,2.132 -1.219528,-1.7329 z m 9.924357,12.0743 c 0.495432,0.5066 0.997591,1.002 1.504233,1.4997 l -2.627365,2.6319 -1.504234,-1.4976 z m 64.087984,23.6148 c -47.590735,0 -86.308497,-38.71769 -86.308497,-86.30843 0,-47.59073 38.717762,-86.30849 86.308497,-86.30849 47.59072,0 86.30848,38.71776 86.30848,86.30849 0,47.59074 -38.71776,86.30843 -86.30848,86.30843 z m 0,-170.37514 c -46.355512,0 -84.066717,37.7112 -84.066717,84.06671 0,46.3555 37.711205,84.06673 84.066717,84.06673 46.3555,0 84.06673,-37.71123 84.06673,-84.06673 0,-46.35551 -37.71123,-84.06671 -84.06673,-84.06671 z"
     id="path3687"
     inkscape:connector-curvature="0"
     sodipodi:nodetypes="sssssccccccccccccccccccsccccccccccccccccccccccccccccccccccccsccccccccccccccccccccccccccccccccccccsccccccccccccccccccccccccccccccccccccscccccccccccccccccccccccccccccccccccccccccccccccccccccccccccccccccccccccccccccccccccccccccccccccccccccccccccccccccccccccccccccccccccccccccccccccccccccccccccccccccccccccccccccccccccccccccccccccccccccccssssssssss" /><g
     inkscape:groupmode="layer"
     id="layer1"
     inkscape:label="washington"
     transform="translate(108.85618,94.40071)"><path
       style="fill:#ffffff;fill-opacity:1;stroke-width:0.2;stroke-miterlimit:4;stroke-dasharray:none"
       d="m 91.890431,196.56867 c -0.759588,-0.1146 -2.459837,-0.3479 -3.778337,-0.51846 l -2.397263,-0.3101 0.371026,-3.19679 c 0.312912,-2.69607 0.226319,-3.25231 -0.55283,-3.5513 -1.432228,-0.5496 -1.770518,-0.0481 -2.180402,3.23254 -0.209293,1.67511 -0.501151,3.04565 -0.648583,3.04565 -0.852892,0 -12.956069,-3.22183 -13.311909,-3.5436 -0.06875,-0.0622 0.371247,-1.41904 0.977763,-3.01526 1.181161,-3.10856 1.062289,-3.93725 -0.564758,-3.93725 -0.742816,0 -1.282272,0.76598 -1.945289,2.76213 -0.524795,1.58001 -1.251795,2.76214 -1.698686,2.76214 -1.089155,0 -11.83578,-5.0369 -11.83578,-5.54738 0,-0.2291 0.618486,-1.49844 1.374414,-2.82075 1.657575,-2.89952 1.670208,-3.04278 0.331498,-3.75924 -0.911756,-0.48796 -1.262831,-0.20727 -2.566764,2.05216 -0.830798,1.4396 -1.577168,2.69973 -1.658599,2.80031 -0.401438,0.49581 -11.291228,-6.86291 -11.291228,-7.62999 0,-0.20031 0.895063,-1.40988 1.989029,-2.68793 1.629604,-1.90383 1.866946,-2.47084 1.313426,-3.13779 -1.057,-1.2736 -1.776102,-0.9577 -3.851798,1.69214 l -1.930411,2.46436 -4.9447,-4.9447 -4.944699,-4.9447 2.610371,-2.29774 c 2.082655,-1.83323 2.481667,-2.45282 1.973731,-3.06485 -0.930197,-1.12082 -1.443219,-0.97463 -4.036177,1.1501 l -2.339694,1.91721 -1.949518,-2.60774 c -1.803206,-2.41203 -4.744892,-6.71601 -5.61654,-8.21756 -0.224898,-0.38742 0.660236,-1.23275 2.253804,-2.15244 1.443281,-0.83296 2.706436,-1.5811 2.807011,-1.66253 0.100576,-0.0814 -0.100039,-0.67667 -0.445812,-1.32275 l -0.628676,-1.1747 -2.914198,1.66734 -2.914197,1.66734 -2.940583,-6.08893 c -1.67754,-3.4736 -2.725776,-6.27638 -2.440476,-6.52535 0.275059,-0.24003 1.68092,-0.87096 3.124136,-1.40206 2.872262,-1.05698 2.865282,-1.04854 2.079055,-2.51761 -0.527795,-0.98619 -0.634861,-0.98414 -3.396259,0.0651 -1.568206,0.59588 -3.057819,0.87687 -3.310253,0.62444 -0.7347366,-0.73474 -3.4266685,-11.58567 -3.0911305,-12.46007 0.1795325,-0.46785 1.4595955,-0.94759 3.1140205,-1.16706 2.559346,-0.3395 2.809179,-0.50006 2.809179,-1.80529 0,-1.37572 -0.09328,-1.41781 -2.347815,-1.05941 -1.2912989,0.20528 -2.8761357,0.50481 -3.5218599,0.66562 -1.08752,0.27084 -1.2002399,0.0144 -1.5294965,-3.47908 -0.1954989,-2.07432 -0.4995123,-5.20088 -0.6755855,-6.94793 l -0.3201328,-3.17646 3.3688041,0 c 3.2251066,0 3.3688046,-0.0589 3.3688046,-1.38107 0,-1.322917 -0.142558,-1.381066 -3.3859184,-1.381066 l -3.385918,0 0.3298972,-3.176456 c 0.1814435,-1.747051 0.4904668,-4.940191 0.6867183,-7.095866 l 0.356821,-3.919416 2.2848794,0.442688 c 3.9960515,0.77421 4.7708015,0.639975 4.7708015,-0.826619 0,-1.182565 -0.310997,-1.35627 -3.0383494,-1.697029 -2.6368379,-0.329451 -3.0382973,-0.538622 -3.0379551,-1.582831 3.71e-4,-1.132354 2.6031403,-11.257377 3.1052855,-12.079859 0.127779,-0.209292 1.635097,0.102089 3.349594,0.691965 1.714498,0.589876 3.169895,1.009704 3.234215,0.932961 0.06432,-0.07674 0.283688,-0.682523 0.487484,-1.346171 0.330295,-1.075587 0.03777,-1.311523 -2.69351,-2.172486 -1.685225,-0.531219 -3.064045,-1.204137 -3.064045,-1.495376 0,-0.291234 1.270946,-3.205989 2.824324,-6.477236 l 2.824325,-5.947721 2.757695,1.625995 c 2.157505,1.272111 2.925473,1.486752 3.528588,0.986211 1.234689,-1.024701 0.937795,-1.516871 -2.008693,-3.329864 l -2.779585,-1.710296 1.090104,-1.737267 c 0.599558,-0.955497 2.396276,-3.517258 3.992708,-5.692802 l 2.902603,-3.955534 2.498926,2.136016 c 2.375567,2.030573 2.550059,2.089742 3.534759,1.198599 1.000734,-0.905651 0.945222,-1.016025 -1.638176,-3.257189 l -2.67401,-2.319773 4.881578,-4.866982 4.881578,-4.866981 2.09655,2.347816 c 2.245537,2.514658 2.843708,2.767744 3.804731,1.609782 0.470086,-0.566419 0.164677,-1.261226 -1.313426,-2.988058 -2.214882,-2.587592 -2.266547,-2.792741 -0.959192,-3.808761 2.686654,-2.087951 10.096109,-6.991403 10.255199,-6.786717 0.100319,0.129072 0.858599,1.415489 1.685067,2.858705 1.615796,2.821581 2.051394,3.074997 3.104496,1.806088 0.550525,-0.663343 0.406688,-1.282319 -0.760999,-3.274827 -0.791907,-1.351287 -1.439831,-2.613087 -1.439831,-2.804 0,-0.412091 11.054753,-5.789606 11.925566,-5.801115 0.330445,-0.0044 1.065676,1.359689 1.633853,3.031236 0.889551,2.617018 1.189773,2.991163 2.161333,2.69351 1.664164,-0.509849 1.661905,-0.488858 0.405868,-3.771088 -0.638264,-1.667888 -0.939883,-3.16886 -0.670271,-3.3354914 0.600438,-0.3710894 12.88817,-3.6161206 13.043071,-3.4445062 0.06095,0.067522 0.324849,1.4900244 0.586456,3.1611166 0.408592,2.610036 0.660178,3.064517 1.784716,3.223978 1.293839,0.183468 1.304623,0.144074 0.926751,-3.3844467 l -0.382323,-3.570076 2.38448,-0.3257681 c 1.311462,-0.1791725 4.435366,-0.4905645 6.942004,-0.6919824 l 4.557524,-0.3662142 0,3.3858954 c 0,3.243337 0.05815,3.385896 1.381069,3.385896 1.32292,0 1.38107,-0.142556 1.38107,-3.3859429 l 0,-3.3859424 4.00509,0.3599762 c 2.20281,0.1979869 5.3086,0.5071423 6.90176,0.6870119 l 2.89667,0.3270357 -0.37358,2.2846101 c -0.63276,3.8696694 -0.53857,4.4813754 0.71762,4.6607004 1.01654,0.145112 1.24826,-0.254152 1.81275,-3.1234126 l 0.64723,-3.2897931 3.4353,0.8008655 c 5.33321,1.2433178 9.18777,2.4354151 9.49805,2.9374452 0.15547,0.251556 -0.0885,1.509468 -0.54222,2.79536 -1.08337,3.070599 -1.04212,3.670688 0.27599,4.015382 0.91349,0.238884 1.2661,-0.184354 2.0716,-2.486524 0.5339,-1.525924 1.25689,-2.886605 1.60664,-3.023734 0.34975,-0.137129 3.29287,1.003958 6.54026,2.535747 l 5.90435,2.785073 -1.72905,3.022064 -1.72905,3.022065 1.19764,0.640954 c 1.33381,0.713836 1.41341,0.643254 3.29942,-2.925786 0.6021,-1.139381 1.2276,-2.071602 1.39001,-2.071602 0.40006,0 6.64187,4.211434 9.22891,6.22686 l 2.08889,1.627346 -1.95078,2.380674 c -2.20496,2.690855 -2.36069,3.297735 -0.98404,3.834607 0.70365,0.274412 1.53863,-0.264166 3.06813,-1.97899 l 2.10137,-2.356007 4.94142,4.941421 4.94142,4.941422 -2.46436,1.930411 c -1.35539,1.061725 -2.46586,2.054707 -2.4677,2.206624 -0.002,0.151918 0.35345,0.747571 0.78954,1.323674 0.76065,1.004874 0.88503,0.964218 3.05916,-0.999988 1.24646,-1.126097 2.55181,-1.952273 2.90079,-1.835947 0.73379,0.244597 7.52783,9.80085 7.55551,10.627309 0.0102,0.303835 -1.23685,1.257502 -2.77116,2.11926 -2.43575,1.368053 -2.70081,1.683434 -2.08926,2.485922 0.38523,0.5055 0.75342,1.005327 0.8182,1.110728 0.0648,0.105401 1.36435,-0.509094 2.88794,-1.365546 1.52359,-0.856451 2.897,-1.430348 3.05201,-1.275328 0.70646,0.706458 5.76201,11.82166 5.54015,12.180639 -0.13733,0.222213 -1.48973,0.815896 -3.00533,1.319301 -2.71348,0.901268 -3.18406,1.505397 -2.28132,2.928725 0.36693,0.578535 1.04162,0.499185 3.41128,-0.401211 1.62464,-0.617315 3.01548,-1.060798 3.09076,-0.985519 0.25191,0.251924 2.88653,9.61679 3.2489,11.548407 l 0.3578,1.907228 -3.21993,0.510299 c -2.78629,0.441577 -3.19426,0.659095 -3.0293,1.615153 0.27579,1.59852 0.34708,1.61854 3.63858,1.021935 3.60438,-0.653317 3.44477,-0.961284 3.97954,7.678793 l 0.36755,5.938592 -3.39762,0 c -3.25584,0 -3.39761,0.05763 -3.39761,1.381066 0,1.31969 0.14731,1.38107 3.31456,1.38107 l 3.31456,0 -0.0181,2.90024 c -0.0183,2.93068 -0.83312,10.29088 -1.17679,10.62934 -0.10241,0.10086 -1.51685,-0.0591 -3.14319,-0.35552 -3.28635,-0.59893 -3.11972,-0.64475 -3.62342,0.99637 -0.3295,1.07354 -0.10671,1.22386 2.30561,1.55565 4.35229,0.59859 4.3096,0.46887 2.44785,7.43842 -0.90902,3.40297 -1.76126,6.29571 -1.89387,6.42832 -0.13261,0.13261 -1.63788,-0.23945 -3.34505,-0.8268 -3.09872,-1.06612 -3.10454,-1.06603 -3.46008,0.0542 -0.43733,1.37791 -0.10379,1.68074 3.18304,2.88987 l 2.60078,0.95676 -1.40664,3.13965 c -0.77365,1.7268 -1.64968,3.75836 -1.94674,4.51456 -0.29706,0.7562 -1.03452,2.1749 -1.63882,3.15266 l -1.09872,1.77777 -2.787,-1.71486 c -2.2675,-1.39522 -2.8781,-1.57098 -3.27575,-0.94297 -0.88803,1.40251 -0.53209,2.03249 1.98026,3.50483 1.36726,0.80127 2.48593,1.65547 2.48593,1.89824 0,0.74627 -6.30359,9.58041 -7.27194,10.19123 -0.71531,0.4512 -1.3416,0.19658 -2.91546,-1.18529 -2.284,-2.00538 -2.65632,-2.0964 -3.65464,-0.8935 -0.61624,0.74252 -0.36919,1.16826 1.72775,2.97727 l 2.44681,2.11085 -2.2433,2.65151 c -1.23382,1.45833 -3.43136,3.6585 -4.88344,4.88925 l -2.64014,2.23774 -2.09849,-2.46094 c -1.82478,-2.13995 -2.21461,-2.36459 -2.98865,-1.72219 -1.21326,1.00691 -1.16314,1.19054 1.02151,3.74282 l 1.91167,2.23335 -1.22113,1.12968 c -1.57921,1.4609 -9.29941,6.75587 -9.85027,6.75587 -0.23221,0 -1.10569,-1.21591 -1.94107,-2.70202 -1.39082,-2.4742 -1.62658,-2.65296 -2.79614,-2.12006 l -1.27727,0.58196 1.66039,2.94205 1.66039,2.94205 -4.28228,2.15213 c -2.35525,1.18368 -5.20065,2.53545 -6.32311,3.00396 l -2.04084,0.85182 -0.91689,-2.76049 c -0.93386,-2.81159 -2.0742,-3.8401 -3.10964,-2.80466 -0.39994,0.39994 -0.28688,1.44712 0.36963,3.42371 0.52019,1.56614 0.85298,2.94035 0.73954,3.05379 -0.25387,0.25386 -8.91572,2.76276 -11.33425,3.28295 l -1.76045,0.37865 -0.65923,-3.35079 c -0.6397,-3.25153 -1.14252,-3.81255 -2.59219,-2.89224 -0.5346,0.33938 -0.56596,1.12546 -0.13545,3.39552 0.3081,1.62464 0.47429,3.0398 0.36929,3.14479 -0.33525,0.33525 -8.28027,1.25281 -11.00106,1.2705 l -2.62403,0.0171 0,-3.31457 c 0,-3.16724 -0.0614,-3.31456 -1.38107,-3.31456 -1.319689,0 -1.381069,0.14732 -1.381069,3.31456 l 0,3.31457 -3.176456,-0.0752 c -1.747051,-0.0414 -3.797937,-0.169 -4.557524,-0.2836 z m 2.209708,-4.06059 c 0,-0.91151 0.06215,-1.84373 0.138107,-2.0716 0.07596,-0.22788 -0.421226,-0.49376 -1.104854,-0.59085 -0.896313,-0.1273 -1.245066,0.1038 -1.250502,0.82864 -0.0044,0.55284 -0.157442,1.5645 -0.340649,2.24813 -0.283312,1.05718 -0.117048,1.24296 1.112401,1.24296 1.237823,0 1.445497,-0.2381 1.445497,-1.65728 z m 16.020391,-0.55243 c 0,-1.81902 -0.18958,-2.20971 -1.07225,-2.20971 -1.43813,0 -1.84466,0.79987 -1.41071,2.77562 0.24764,1.12752 0.69426,1.6438 1.422,1.6438 0.8695,0 1.06096,-0.39876 1.06096,-2.20971 z m -31.599163,-2.34781 c 0.401792,-1.52445 0.308702,-1.85971 -0.61684,-2.22158 -1.313898,-0.51371 -1.38641,-0.45245 -2.00104,1.69065 -0.539329,1.88052 -0.319397,2.32631 1.147684,2.32631 0.65946,0 1.157197,-0.60783 1.470196,-1.79538 z m 47.257563,-0.33597 c -0.10502,-2.22224 -0.3434,-2.48931 -1.80719,-2.02472 -0.92015,0.29205 -1.07748,0.65785 -0.79389,1.84584 0.5023,2.10412 0.7389,2.39563 1.77161,2.18271 0.651,-0.13423 0.89048,-0.71276 0.82947,-2.00383 z m -16.48704,-2.29952 c 15.04782,-1.67921 27.67373,-6.22421 40.05097,-14.41729 7.07898,-4.68591 18.46974,-16.05476 23.1472,-23.10267 19.70454,-29.69045 19.88091,-67.159465 0.45325,-96.293412 C 155.43328,26.900731 126.13194,12.496789 94.652567,14.672846 59.628562,17.093931 29.641684,40.555599 18.63679,74.147425 c -3.27414,9.994131 -4.263497,17.434088 -3.912221,29.419875 0.400553,13.66715 2.392402,22.29927 7.867754,34.09667 15.205075,32.76141 51.25461,53.26375 86.699567,49.30838 z m -45.696812,-2.87826 c 0.561227,-1.32148 0.499841,-1.58403 -0.494815,-2.11636 -0.624541,-0.33424 -1.188199,-0.52542 -1.252573,-0.42485 -0.06437,0.10058 -0.434351,0.91854 -0.822172,1.81769 -0.616304,1.42888 -0.581943,1.7249 0.272772,2.34989 1.078476,0.7886 1.354043,0.59347 2.296788,-1.62637 z m 77.375362,1.29729 c 0.61295,-0.38848 0.58635,-0.77287 -0.1523,-2.20126 -0.9554,-1.84755 -1.25228,-1.99404 -2.47388,-1.22072 -0.65013,0.41157 -0.66187,0.77496 -0.0711,2.20125 0.72447,1.74902 1.38909,2.04981 2.69726,1.22073 z m -91.158944,-9.07557 c 0.813787,-1.34338 0.824976,-1.58593 0.09447,-2.04807 -1.149735,-0.72736 -1.798936,-0.41914 -2.762136,1.31136 -0.73657,1.32334 -0.73657,1.54759 0,2.01833 1.127793,0.72077 1.588858,0.49926 2.667666,-1.28162 z m 105.024954,1.03749 c 0.51584,-0.62155 0.45737,-1.09637 -0.27211,-2.20971 -1.02172,-1.55933 -2.32624,-1.85526 -2.79488,-0.63402 -0.30969,0.80704 1.23754,3.6354 1.98871,3.6354 0.23169,0 0.71691,-0.35625 1.07828,-0.79167 z M 37.294749,166.73459 c 1.19557,-1.08197 1.286866,-2.03544 0.275281,-2.87498 -1.058754,-0.87869 -3.990558,2.15732 -3.020264,3.12761 0.893068,0.89307 1.54534,0.83304 2.744983,-0.25263 z m 130.166441,0.25263 c 0.5139,-0.5139 0.33137,-1.00637 -0.81745,-2.20547 -1.39083,-1.45172 -1.53959,-1.48907 -2.49322,-0.62606 -0.98102,0.88782 -0.97463,0.95983 0.1956,2.20548 1.3543,1.44159 2.14136,1.59976 3.11507,0.62605 z M 26.719213,154.57378 c 0.751233,-0.50691 1.453384,-0.98802 1.560333,-1.06913 0.106949,-0.0811 -0.161793,-0.65606 -0.597205,-1.2777 l -0.79166,-1.13025 -1.672085,1.23362 c -1.380485,1.01849 -1.565848,1.40205 -1.062902,2.19938 0.74936,1.18798 0.865354,1.18998 2.563519,0.0441 z m 151.349857,-0.96035 c 0,-0.35304 -0.70569,-1.05875 -1.56819,-1.56824 -1.19065,-0.70334 -1.72264,-0.77192 -2.20971,-0.28484 -1.00279,1.00279 -0.76697,1.7458 0.86919,2.73857 1.54453,0.93716 2.90871,0.52187 2.90871,-0.88549 z M 18.44505,140.84195 c 2.854355,-1.47604 1.779222,-3.67772 -1.194437,-2.44599 -1.073402,0.44461 -1.545825,0.96322 -1.347725,1.47946 0.167761,0.43717 0.30502,1.02313 0.30502,1.30212 0,0.69434 0.345794,0.64247 2.237142,-0.33559 z m 167.50285,-0.75628 c 0.27365,-1.04641 -1.43299,-2.26788 -3.16869,-2.26788 -1.24327,0 -1.27186,1.87293 -0.0398,2.60445 1.6564,0.98344 2.89729,0.85327 3.20844,-0.33657 l 2e-5,0 z M 13.307665,125.86863 c 0.86237,-0.2311 1.242962,-0.74969 1.242962,-1.69363 0,-1.24427 -0.153415,-1.3282 -1.795389,-0.98222 -2.24769,0.47361 -2.754713,0.93584 -2.306822,2.10302 0.379524,0.98902 0.909806,1.09526 2.859249,0.57283 z m 178.019655,-0.98898 c 0,-1.04846 -0.37274,-1.41905 -1.72629,-1.71634 -2.76297,-0.60685 -3.70011,1.81291 -0.99489,2.56889 2.31779,0.6477 2.72118,0.52132 2.72118,-0.85255 z M 11.788491,108.81536 c 0,-1.14038 -0.264751,-1.37959 -1.519175,-1.37261 -2.0333943,0.0113 -3.0149894,0.70701 -2.5836361,1.8311 0.2344598,0.61099 0.9870769,0.92258 2.2284194,0.92258 1.6310657,0 1.8743917,-0.17928 1.8743917,-1.38107 z m 182.300969,0 c 0,-1.20178 -0.24333,-1.38107 -1.87439,-1.38107 -1.2038,0 -1.99501,0.3143 -2.21151,0.8785 -0.51744,1.34844 0.10338,1.88364 2.18501,1.88364 1.65933,0 1.90089,-0.1755 1.90089,-1.38107 z M 11.788491,93.115084 c 0,-1.354154 -3.1957908,-2.224547 -3.9275405,-1.069692 -0.9813456,1.548768 -0.5122038,2.13065 1.7178315,2.13065 1.810951,0 2.209709,-0.19146 2.209709,-1.060958 z m 182.300969,-0.32011 c 0,-1.205567 -0.24156,-1.381068 -1.90089,-1.381068 -2.08163,0 -2.70245,0.535203 -2.18501,1.883645 0.2165,0.564193 1.00771,0.878491 2.21151,0.878491 1.63106,0 1.87439,-0.179284 1.87439,-1.381068 z M 14.550627,77.657271 c 0,-0.682877 -0.611657,-1.264042 -1.746862,-1.659773 -1.976678,-0.689075 -1.85852,-0.732822 -2.350682,0.870266 -0.385152,1.254529 0.236345,1.64125 2.854582,1.776236 0.875828,0.04513 1.242962,-0.246294 1.242962,-0.986729 z m 175.562723,0.695042 c 0.90329,-0.241936 1.22351,-0.68006 1.10485,-1.511629 -0.13471,-0.943998 -0.48831,-1.136917 -1.82437,-0.995346 -2.04007,0.216164 -2.62866,0.743147 -2.16872,1.941726 0.38084,0.992435 0.90807,1.095623 2.88824,0.565249 z M 19.739581,63.471151 c 0.557396,-1.452552 0.405292,-1.725285 -1.372986,-2.461875 -1.426288,-0.590788 -1.789681,-0.579048 -2.201249,0.07109 -0.758795,1.19864 -0.62866,1.507596 1.00931,2.396214 1.940852,1.052926 2.158975,1.052468 2.564925,-0.0055 l 0,9.9e-5 z M 184.73451,63.220686 c 1.16394,-0.622922 1.41407,-1.911519 0.48277,-2.487093 -0.50349,-0.311171 -3.83365,0.685446 -3.83365,1.147297 0,1.73592 1.49432,2.333397 3.35088,1.339796 z M 27.782274,49.479152 c 0.471426,-0.880868 0.274371,-1.238965 -1.193064,-2.168078 -1.631896,-1.033243 -1.808208,-1.046692 -2.462285,-0.187818 -0.599725,0.787503 -0.480992,1.109604 0.79818,2.165335 1.833687,1.513383 2.138342,1.533702 2.857169,0.190561 z M 177.08454,48.999669 c 0.7243,-0.62139 0.81589,-1.062821 0.38686,-1.864475 -0.54004,-1.009071 -0.62614,-1.012511 -2.19193,-0.08757 -1.74656,1.031714 -2.01068,1.779985 -0.98896,2.801711 0.67031,0.670302 1.21567,0.504456 2.79403,-0.849662 z M 37.778832,37.520611 c 0.6013,-0.724523 0.481772,-1.092489 -0.757412,-2.331673 -1.384892,-1.384891 -1.526598,-1.416175 -2.410606,-0.532167 -0.884008,0.884009 -0.862322,1.021075 0.368922,2.331673 1.529047,1.627597 1.840782,1.686864 2.799096,0.532167 z M 166.47879,36.988444 c 1.23125,-1.310598 1.25294,-1.447664 0.36893,-2.331673 -0.88401,-0.884008 -1.02572,-0.852724 -2.41061,0.532167 -1.23918,1.239184 -1.35871,1.60715 -0.75741,2.331673 0.95831,1.154697 1.27005,1.09543 2.79909,-0.532167 z M 50.455649,26.898598 c -0.0015,-0.217187 -0.560842,-1.071102 -1.242961,-1.89759 -1.103259,-1.336759 -1.352254,-1.417683 -2.254751,-0.732798 -0.976852,0.741312 -0.968575,0.832069 0.222839,2.443542 1.002438,1.35587 1.431058,1.569978 2.257494,1.127683 0.561068,-0.300274 1.018888,-0.723651 1.017379,-0.940837 z M 155.41681,25.003976 c 0.002,-0.217187 -0.47767,-0.651996 -1.06485,-0.966245 -0.8824,-0.472244 -1.26099,-0.29976 -2.18244,0.994303 -1.04959,1.474003 -1.05986,1.620943 -0.17537,2.509893 0.88581,0.890288 1.01033,0.856045 2.1797,-0.599419 0.68212,-0.849007 1.24145,-1.721346 1.24296,-1.938532 z M 63.530295,19.725233 c 0.481539,-0.306369 0.453647,-0.857313 -0.111436,-2.201249 -0.795064,-1.890905 -1.153164,-2.081156 -2.414399,-1.282735 -0.650135,0.411568 -0.661875,0.774961 -0.07109,2.201249 0.708328,1.710043 1.393426,2.048444 2.596922,1.282735 z m 77.228365,-1.367032 c 0.56509,-1.343935 0.59298,-1.89488 0.11144,-2.201249 -1.2035,-0.765709 -1.8886,-0.427308 -2.59692,1.282735 -0.59079,1.426289 -0.57905,1.789681 0.0711,2.201249 1.26124,0.798421 1.61934,0.60817 2.4144,-1.282735 z M 78.27019,12.495176 c -0.105017,-2.222234 -0.343395,-2.489305 -1.807183,-2.024716 -0.920156,0.292047 -1.077487,0.657844 -0.793893,1.845828 0.502294,2.104127 0.738899,2.395636 1.771612,2.182712 0.650997,-0.134224 0.890474,-0.712754 0.829464,-2.003824 z m 47.53194,0.372578 c 0.3464,-1.731959 -0.21854,-2.632511 -1.66376,-2.652183 -0.68573,-0.0093 -1.48753,3.127627 -1.00074,3.915269 0.74191,1.20044 2.32157,0.451619 2.6645,-1.263086 z M 94.100139,9.654685 c 0,-1.8528039 -0.181251,-2.2097087 -1.122189,-2.2097087 -1.346077,0 -1.884782,1.1590073 -1.412783,3.0395847 0.223518,0.890576 0.734336,1.379833 1.440642,1.379833 0.908433,0 1.09433,-0.375369 1.09433,-2.209709 z m 16.020391,-0.038422 c 0,-2.0154146 -0.12867,-2.2298571 -1.24296,-2.0716019 -0.99842,0.141798 -1.2767,0.5841011 -1.41442,2.2481306 -0.15718,1.8990912 -0.0536,2.0716022 1.24296,2.0716022 1.2859,0 1.41442,-0.204275 1.41442,-2.2481309 z"
       id="path6349"
       inkscape:connector-curvature="0"
       transform="translate(-108.85619,-94.40071)" /><path
       style="fill:#ffffff;fill-opacity:1;stroke-width:0.2;stroke-miterlimit:4;stroke-dasharray:none"
       d="m 92.166644,184.21321 c -32.730456,-3.47759 -60.658231,-26.10988 -70.884679,-57.44396 -3.14172,-9.62631 -3.692989,-13.50209 -3.692989,-25.96408 0,-12.598645 0.551922,-16.355619 3.86657,-26.319991 C 25.84741,61.282513 32.774754,50.47249 43.353073,40.314393 74.929966,9.9918854 124.14191,9.3683962 157.09645,38.873325 c 13.01003,11.648172 22.16761,27.817126 26.00277,45.911455 1.64184,7.746239 1.80075,23.13515 0.31659,30.65971 -3.42917,17.38556 -10.52292,31.15608 -22.44279,43.56639 -17.79471,18.52689 -43.39194,27.90261 -68.806376,25.20233 z"
       id="path6364"
       inkscape:connector-curvature="0"
       transform="translate(-108.85619,-94.40071)" /><g
       style="font-style:normal;font-weight:normal;font-size:93.29579926px;line-height:125%;font-family:Sans;letter-spacing:0px;word-spacing:0px;fill:#ffffff;fill-opacity:1;stroke:none;stroke-width:1px;stroke-linecap:butt;stroke-linejoin:miter;stroke-opacity:1"
       id="text6337"
       transform="translate(2.2097088,0)"><path
         d="m -27.897026,35.72139 -43.777961,0 0,-6.514307 17.538517,-17.629626 q 8.017608,-8.1087166 10.568665,-11.57086538 2.551057,-3.46214882 3.826585,-6.74207922 1.275529,-3.2799304 1.275529,-7.0609614 0,-5.329887 -3.234376,-8.427599 -3.234376,-3.143267 -8.974254,-3.143267 -4.145468,0 -7.880944,1.366638 -3.689922,1.366638 -8.245381,4.96545 l -4.008804,-5.147668 q 9.202027,-7.653171 20.04402,-7.653171 9.384245,0 14.714132,4.828786 5.329887,4.783232 5.329887,12.891949 0,6.3320878 -3.553258,12.527512 -3.553258,6.1954242 -13.30194,15.670779 l -14.577469,14.258586 0,0.364437 34.257052,0 0,7.015407 z"
         style="font-style:normal;font-variant:normal;font-weight:normal;font-stretch:normal;font-family:'Open Sans';-inkscape-font-specification:'Open Sans';fill:#000000"
         id="path6377"
         inkscape:connector-curvature="0" /><path
         d="m 2.5334408,-4.9588586 q 10.5231102,0 16.5363162,5.23877775 6.05876,5.19322325 6.05876,14.25858685 0,10.340891 -6.605415,16.217434 -6.559861,5.876542 -18.13072691,5.876542 -11.25198409,0 -17.17408009,-3.598813 l 0,-7.288734 q 3.188821,2.049956 7.9264984,3.234376 4.7376773,1.138864 9.33869087,1.138864 8.01760773,0 12.43640273,-3.781031 4.46435,-3.781031 4.46435,-10.933101 0,-13.9397045 -17.08297109,-13.9397045 -4.32768601,0 -11.57086591,1.3210831 l -3.917695,-2.50550245 2.505503,-31.15933915 33.118186,0 0,6.969852 -26.6494344,0 -1.6855198,19.9984649 q 5.2387778,-1.0477555 10.432001,-1.0477555 z"
         style="font-style:normal;font-variant:normal;font-weight:normal;font-stretch:normal;font-family:'Open Sans';-inkscape-font-specification:'Open Sans';fill:#000000"
         id="path6379"
         inkscape:connector-curvature="0" /><path
         d="m 58.996782,28.690139 q -3.076172,1.582032 -7.382813,1.757813 l 0,5.859375 -3.896484,0 0,-6.035156 q -5.947266,-0.9375 -8.789063,-4.921876 -2.812501,-4.013672 -2.812501,-11.337891 0,-14.88281343 11.601564,-16.6992198 l 0,-5.0390628 3.955078,0 0,4.8046878 q 2.197266,0.087891 4.277344,0.5859375 2.080078,0.4687501 3.515625,1.1425782 L 58.029985,2.9088877 Q 54.133501,1.414747 50.940141,1.414747 q -5.039063,0 -7.41211,3.1054689 -2.373047,3.0761721 -2.373047,9.4335941 0,6.210938 2.314453,9.19922 2.343751,2.958984 7.236329,2.958984 4.13086,0 8.291016,-1.728516 l 0,4.306641 z"
         style="font-size:60.00000381px;fill:#000000"
         id="path6381"
         inkscape:connector-curvature="0" /></g></g></svg>