<?xml version="1.0" encoding="UTF-8" standalone="no"?>
<svg
   xmlns:dc="http://purl.org/dc/elements/1.1/"
   xmlns:cc="http://creativecommons.org/ns#"
   xmlns:rdf="http://www.w3.org/1999/02/22-rdf-syntax-ns#"
   xmlns:svg="http://www.w3.org/2000/svg"
   xmlns="http://www.w3.org/2000/svg"
   height="56.941177mm"
   width="56.941189mm"
   id="svg3685"
   xml:space="preserve"
   viewBox="0 0 201.76012 201.76008"
   y="0px"
   x="0px"
   version="1.1"><metadata
     id="metadata3697"><rdf:RDF><cc:Work
         rdf:about=""><dc:format>image/svg+xml</dc:format><dc:type
           rdf:resource="http://purl.org/dc/dcmitype/StillImage" /><dc:title></dc:title></cc:Work></rdf:RDF></metadata><defs
     id="defs3695" /><path
     id="path3687"
     d="M 100.88006,0 C 45.165119,0 0,45.16512 0,100.88005 c 0,55.71713 45.165119,100.88003 100.88006,100.88003 55.71719,0 100.88006,-45.1629 100.88006,-100.88003 C 201.76012,45.16512 156.59725,0 100.88006,0 Z m 62.77206,173.94858 -4.293,-5.118 c -0.56716,0.491 -1.12988,0.9819 -1.70826,1.4549 l 4.29526,5.1203 c -3.74826,3.0757 -7.73415,5.8622 -11.91954,8.3596 l -3.34251,-5.7928 c -0.64338,0.3811 -1.29574,0.7532 -1.9481,1.1164 l 3.34474,5.7928 c -4.21006,2.3785 -8.61292,4.4476 -13.18391,6.1783 l -2.29333,-6.3016 c -0.69943,0.2645 -1.40112,0.5156 -2.10727,0.7644 l 2.29109,6.3039 c -4.54184,1.6029 -9.24284,2.8627 -14.06268,3.7729 l -1.1702,-6.6177 c -0.73531,0.1389 -1.46614,0.2735 -2.20591,0.3968 l 1.16796,6.6155 c -4.7324,0.7756 -9.57463,1.1993 -14.51328,1.2576 l 0,-6.7253 c -0.37661,0 -0.7465,0.025 -1.12312,0.025 -0.37438,0 -0.74652,-0.027 -1.120893,-0.031 l 0,6.7253 c -4.936401,-0.054 -9.785365,-0.482 -14.520005,-1.2599 l 1.167969,-6.6177 c -0.739786,-0.1189 -1.472845,-0.2534 -2.205914,-0.3946 l -1.165721,6.6155 c -4.826556,-0.9057 -9.525323,-2.1723 -14.069408,-3.7707 l 2.293341,-6.3039 c -0.706161,-0.2443 -1.407833,-0.4999 -2.105031,-0.7644 l -2.293341,6.3039 c -4.573228,-1.7284 -8.976083,-3.8043 -13.186141,-6.1783 l 3.344733,-5.7973 c -0.652355,-0.3632 -1.302471,-0.7353 -1.943621,-1.1164 l -3.344737,5.7928 c -4.185401,-2.4907 -8.173525,-5.2794 -11.921779,-8.3597 l 4.29749,-5.1202 c -0.578378,-0.473 -1.138822,-0.9707 -1.705992,-1.4549 l -4.295249,5.118 c -3.683244,-3.1699 -7.122132,-6.6065 -10.289766,-10.2942 l 5.115739,-4.293 c -0.486467,-0.565 -0.981899,-1.1254 -1.454914,-1.706 l -5.120222,4.2952 c -3.075721,-3.7482 -5.866737,-7.7341 -8.357355,-11.9195 l 5.79276,-3.34251 c -0.381104,-0.64339 -0.750997,-1.29125 -1.11865,-1.94361 l -5.792757,3.34473 c -2.376286,-4.21455 -4.44769,-8.61739 -6.178344,-13.18838 l 6.301642,-2.28886 c -0.264531,-0.69933 -0.515609,-1.40549 -0.764445,-2.10942 l -6.303884,2.29335 c -1.59839,-4.54406 -2.8605101,-9.24284 -3.7684305,-14.0649 L 12.782623,117.553 c -0.13899,-0.7353 -0.275739,-1.4706 -0.394553,-2.20814 l -6.6154894,1.16795 c -0.7756561,-4.7279 -1.2015926,-9.57462 -1.25988,-14.50877 l 6.7253374,0 c -0.0044,-0.37438 -0.02914,-0.74651 -0.02914,-1.12314 0,-0.37437 0.02464,-0.7465 0.02914,-1.12088 l -6.7253374,0 c 0.056044,-4.93417 0.4819837,-9.77641 1.257638,-14.5088 l 6.6154884,1.16796 c 0.121062,-0.74203 0.257806,-1.47509 0.394554,-2.21039 L 6.1648921,83.04307 c 0.90792,-4.82431 2.1700427,-9.52308 3.7684304,-14.06493 l 6.3038835,2.29334 c 0.246595,-0.70616 0.499917,-1.41232 0.764446,-2.10951 l -6.30164,-2.29334 c 1.730653,-4.57323 3.802056,-8.97384 6.178342,-13.18615 l 5.792758,3.34474 c 0.367651,-0.6546 0.737545,-1.30472 1.120891,-1.94587 l -5.79276,-3.34473 c 2.49286,-4.1854 5.281634,-8.17353 8.357355,-11.92178 l 5.120222,4.29749 c 0.473015,-0.57838 0.968447,-1.13882 1.454914,-1.70599 l -5.117979,-4.29525 c 3.169874,-3.68324 6.608762,-7.12213 10.292006,-10.29201 l 4.295249,5.11799 c 0.56717,-0.48872 1.127614,-0.98191 1.705992,-1.45716 l -4.29749,-5.12023 c 3.746011,-3.07796 7.736378,-5.86673 11.921779,-8.35735 l 3.344732,5.79276 c 0.641155,-0.38335 1.293509,-0.751 1.943621,-1.11865 l -3.344733,-5.79356 c 4.212304,-2.37633 8.61516,-4.44774 13.188389,-6.17839 l 2.29334,6.30164 c 0.69943,-0.26453 1.401117,-0.51561 2.107268,-0.7622 L 68.970573,9.94005 C 73.514656,8.34166 78.215666,7.07729 83.039975,6.16937 l 1.167968,6.61549 c 0.73306,-0.13899 1.468365,-0.2735 2.208151,-0.39455 L 85.248126,5.77482 C 89.980524,4.99916 94.825008,4.57323 99.761408,4.51494 l 0,6.72534 c 0.372132,-0.007 0.744272,-0.0314 1.118652,-0.0314 0.37662,0 0.74651,0.0246 1.12088,0.0292 l 0,-6.72534 c 4.92967,0.056 9.76743,0.48198 14.49983,1.25764 l -1.16798,6.61549 c 0.73979,0.12106 1.47511,0.25556 2.21041,0.39455 l 1.16796,-6.61549 c 4.82207,0.90568 9.52307,2.17004 14.06491,3.76843 l -2.29332,6.30388 c 0.7084,0.2466 1.41455,0.49992 2.11398,0.76445 l 2.28886,-6.30164 c 4.57324,1.73065 8.97384,3.80206 13.18615,6.1761 l -3.3425,5.79276 c 0.65236,0.36765 1.30472,0.73754 1.94811,1.12088 l 3.3425,-5.79275 c 4.18316,2.49062 8.17353,5.27939 11.91956,8.35735 l -4.2975,5.12023 c 0.58287,0.47525 1.14555,0.97068 1.71271,1.45939 l 4.29526,-5.12022 c 3.68773,3.16987 7.12436,6.60876 10.29199,10.28976 l -5.11573,4.29525 c 0.49095,0.56717 0.98189,1.12762 1.45715,1.70824 l 5.118,-4.29749 c 3.07796,3.74601 5.86672,7.73414 8.35957,11.91954 l -5.79275,3.34473 c 0.38561,0.64339 0.75325,1.29351 1.1209,1.94811 l 5.79274,-3.34474 c 2.37853,4.21006 4.4477,8.61292 6.17836,13.1839 l -6.30164,2.29334 c 0.26453,0.69944 0.5156,1.40336 0.76444,2.11176 l 6.30389,-2.29334 c 1.60062,4.54409 2.86274,9.24285 3.77291,14.06492 l -6.61774,1.16797 c 0.13899,0.7353 0.27351,1.47061 0.3968,2.21263 l 6.61549,-1.16796 c 0.77566,4.73015 1.19936,9.57464 1.25763,14.50655 l -6.72533,0 c -0.003,0.37663 0.0246,0.74651 0.0246,1.12313 0,0.37663 -0.0269,0.74875 -0.0315,1.12538 l 6.72535,0 c -0.0539,4.93192 -0.48197,9.77639 -1.25988,14.51103 l -6.61325,-1.16796 c -0.12324,0.73977 -0.2578,1.47509 -0.3968,2.21039 l 6.61326,1.16797 c -0.90569,4.82206 -2.17228,9.52082 -3.77067,14.06491 l -6.30389,-2.29334 c -0.2466,0.70392 -0.50214,1.41233 -0.76445,2.10952 l 6.30165,2.29109 c -1.72842,4.57101 -3.79982,8.97385 -6.18058,13.18615 l -5.79275,-3.34473 c -0.36542,0.65235 -0.73306,1.30471 -1.11867,1.9481 l 5.79278,3.34018 c -2.49063,4.1854 -5.2794,8.1736 -8.35736,11.9196 l -5.12022,-4.2975 c -0.47527,0.5806 -0.97293,1.1411 -1.45716,1.7082 l 5.11575,4.293 c -3.15869,3.6878 -6.59532,7.1267 -10.28081,10.2965 z M 125.03074,14.52673 c -0.68598,-0.19056 -1.36077,-0.39007 -2.05347,-0.56493 l 0.94603,-3.53305 2.05347,0.547 z m -15.36291,-2.88517 c -0.69945,-0.0673 -1.41455,-0.10761 -2.11849,-0.16142 l 0.32057,-3.68324 2.11849,0.18383 z m 43.43671,16.36722 c -0.57614,-0.41248 -1.14779,-0.83394 -1.73065,-1.23297 l 2.10277,-3.00847 1.74188,1.21953 z m -13.43051,-7.99642 c -0.6389,-0.30713 -1.29574,-0.58511 -1.93913,-0.87654 l 1.54682,-3.33128 1.92794,0.89895 z m 25.29176,18.17186 c -0.49543,-0.50665 -0.99534,-1.00656 -1.50647,-1.49975 l 2.6072,-2.61167 1.50422,1.50199 z M 61.944834,20.08185 l -1.551312,-3.32007 1.921205,-0.89896 1.562523,3.3425 c -0.643392,0.29143 -1.29575,0.56941 -1.932416,0.87653 z m -13.417047,8.01885 -2.125204,-3.03089 1.737375,-1.21952 2.118483,3.01967 c -0.585104,0.40128 -1.156758,0.81601 -1.730654,1.23074 z M 91.933115,11.65501 91.608057,7.98746 93.71981,7.80139 94.047109,11.4936 c -0.703918,0.0538 -1.414568,0.0919 -2.113994,0.16141 z m -15.35843,2.91655 -0.95724,-3.55994 2.051229,-0.55373 0.950515,3.53978 c -0.688226,0.17485 -1.363005,0.3811 -2.044504,0.57389 z M 13.997669,123.14092 c 0.1771,0.68822 0.3811,1.363 0.573894,2.04899 l -3.573395,0.95948 -0.551478,-2.05572 z M 11.482391,94.20403 7.7789721,93.88346 7.9627988,91.76722 11.646042,92.08555 c -0.07174,0.70168 -0.109843,1.41232 -0.163651,2.11848 z m 2.481651,-15.4324 -3.553221,-0.94828 0.546994,-2.05123 3.571154,0.95276 c -0.190551,0.6815 -0.392312,1.35852 -0.564927,2.04675 z M 11.4936,107.71299 c 0.05156,0.70617 0.09192,1.41681 0.16141,2.11848 l -3.6787618,0.3273 -0.1860673,-2.11399 z m 7.644469,-43.69003 -3.349219,-1.55804 0.896711,-1.92568 3.3268,1.54907 c -0.304879,0.63442 -0.582863,1.28902 -0.874292,1.93465 z M 182.55703,63.87949 c -0.28919,-0.64563 -0.5694,-1.29799 -0.87878,-1.93466 l 3.30887,-1.54458 0.89897,1.92344 z m 7.70948,30.1721 c -0.0516,-0.70616 -0.0919,-1.4168 -0.16141,-2.12072 l 3.65635,-0.32282 0.1883,2.11848 z m -2.50183,-15.43016 c -0.17709,-0.68823 -0.38333,-1.36525 -0.57389,-2.04899 l 3.5465,-0.95276 0.55598,2.05347 z M 174.89465,50.25844 c -0.40353,-0.58511 -0.81827,-1.159 -1.23524,-1.7329 l 3.02193,-2.11623 1.21728,1.73961 z M 19.200838,137.87838 c 0.293672,0.64563 0.571654,1.29798 0.878777,1.93465 l -3.331284,1.55355 -0.898955,-1.9212 z m 163.418972,-0.13675 3.33576,1.55355 -0.89671,1.92343 -3.31559,-1.54234 c 0.30712,-0.63442 0.58287,-1.28677 0.87654,-1.93464 z m 5.17627,-14.75091 3.53305,0.94603 -0.547,2.05347 -3.55547,-0.95051 c 0.19503,-0.67703 0.39454,-1.35853 0.56942,-2.04899 z m 2.48166,-15.43241 3.68547,0.32283 -0.18381,2.11623 -3.66084,-0.31834 c 0.0671,-0.70391 0.10534,-1.41232 0.15918,-2.12072 z m -65.09456,79.63247 0.95723,3.5577 -2.04898,0.5515 -0.95051,-3.5376 c 0.68598,-0.1748 1.36076,-0.3811 2.04226,-0.5716 z m 14.62986,-5.5103 1.54906,3.3156 -1.92569,0.9012 -1.56027,-3.3358 c 0.64562,-0.2936 1.30021,-0.5739 1.9369,-0.881 z m -29.98604,8.4246 0.32729,3.6698 -2.11398,0.1838 -0.32732,-3.6899 c 0.70168,-0.054 1.41682,-0.094 2.11401,-0.1637 z m -17.750414,0.014 c 0.69943,0.065 1.407838,0.1098 2.113999,0.1592 l -0.322816,3.7056 -2.111762,-0.1771 z M 36.686711,38.2988 l -2.62288,-2.6184 1.499753,-1.50199 2.620637,2.61616 c -0.504402,0.49543 -1.004317,0.99759 -1.49751,1.50423 z m 128.386689,125.16748 2.61393,2.6094 -1.49976,1.5043 -2.61392,-2.6095 c 0.5044,-0.4977 1.00432,-0.9953 1.49975,-1.5042 z m -11.84332,10.1978 2.12072,3.0264 -1.73515,1.2218 -2.11174,-3.0174 c 0.57838,-0.4013 1.15228,-0.8205 1.72617,-1.2308 z m 21.752,-22.2877 3.01292,2.105 -1.21728,1.7419 -3.03087,-2.1163 c 0.41248,-0.5716 0.83393,-1.1433 1.23523,-1.7306 z M 26.77805,50.38616 23.75389,48.2744 l 1.217286,-1.73962 3.035369,2.12297 c -0.410247,0.57165 -0.827218,1.1433 -1.228495,1.72841 z m 21.873035,123.36282 c 0.573896,0.4148 1.143307,0.8295 1.728412,1.2285 l -2.120725,3.0354 -1.739617,-1.2128 z m 13.428257,7.992 c 0.636665,0.3071 1.289025,0.5851 1.932415,0.8765 l -1.562522,3.3582 -1.921205,-0.8922 z m 14.638818,5.4923 c 0.6815,0.1883 1.356278,0.3901 2.044503,0.565 l -0.950513,3.56 -2.048993,-0.5425 z m -49.850441,-35.7339 c 0.40128,0.5851 0.816007,1.1568 1.230738,1.7284 l -3.042094,2.132 -1.219528,-1.7329 z m 9.924357,12.0743 c 0.495432,0.5066 0.997591,1.002 1.504233,1.4997 l -2.627365,2.6319 -1.504234,-1.4976 z m 64.087984,23.6148 c -47.590735,0 -86.308497,-38.71769 -86.308497,-86.30843 0,-47.59073 38.717762,-86.30849 86.308497,-86.30849 47.59072,0 86.30848,38.71776 86.30848,86.30849 0,47.59074 -38.71776,86.30843 -86.30848,86.30843 z m 0,-170.37514 c -46.355512,0 -84.066717,37.7112 -84.066717,84.06671 0,46.3555 37.711205,84.06673 84.066717,84.06673 46.3555,0 84.06673,-37.71123 84.06673,-84.06673 0,-46.35551 -37.71123,-84.06671 -84.06673,-84.06671 z" /><g
     transform="translate(108.85618,94.40071)"
     id="layer1"><text
       id="text4878"
       y="36.595005"
       x="-72.503616"
       style="font-style:normal;font-weight:normal;font-size:98.8842926px;line-height:125%;font-family:Sans;letter-spacing:0px;word-spacing:0px;fill:#000000;fill-opacity:1;stroke:none;stroke-width:1px;stroke-linecap:butt;stroke-linejoin:miter;stroke-opacity:1"
       xml:space="preserve"><tspan
         style="font-style:normal;font-variant:normal;font-weight:normal;font-stretch:normal;font-family:'Open Sans';-inkscape-font-specification:'Open Sans'"
         y="36.595005"
         x="-72.503616"
         id="tspan4880">25<tspan
   id="tspan4882"
   style="font-size:61.59123611px">¢</tspan></tspan></text>
<path
       transform="translate(-108.85619,-94.40071)"
       id="path4884"
       d="M 95.872954,184.71693 C 72.071739,183.21168 50.228495,171.86377 35.334759,153.2664 11.414976,123.39846 10.729947,81.194007 33.66884,50.629679 39.98346,42.215928 48.177634,34.730068 56.947025,29.363684 68.682208,22.182398 81.145376,18.170712 94.994048,17.116981 c 3.706449,-0.282021 11.534872,-0.128941 15.234372,0.297897 32.62202,3.763837 59.97584,25.990681 70.40365,57.207767 3.9416,11.799711 5.15683,25.281895 3.40671,37.795055 -3.67288,26.26068 -19.37028,49.02414 -42.78436,62.0434 -9.63534,5.35767 -20.52428,8.75977 -31.83707,9.94707 -3.50366,0.36772 -10.19888,0.52034 -13.544396,0.30876 z m 28.515626,-53.20468 c 5.5794,-1.07274 9.53327,-2.98499 12.96352,-6.26969 3.48243,-3.33466 5.36173,-7.0757 6.18299,-12.30819 0.45021,-2.86847 0.31518,-7.66936 -0.28016,-9.96094 -2.02513,-7.795009 -7.7179,-12.779589 -16.66658,-14.593232 -1.96193,-0.397629 -2.73825,-0.44458 -7.18024,-0.434248 -4.10314,0.0096 -5.45997,0.08626 -7.70251,0.435508 -1.49713,0.233158 -2.74388,0.402086 -2.77058,0.375396 -0.0267,-0.02669 0.33959,-4.617201 0.81395,-10.201134 0.47436,-5.583932 0.86418,-10.262467 0.86627,-10.396745 0.003,-0.193033 2.96808,-0.24414 14.16396,-0.24414 l 14.16016,0 0,-3.808594 0,-3.808594 -17.67578,0 c -15.05468,0 -17.67578,0.04071 -17.67578,0.274555 0,0.151004 -0.57129,7.349518 -1.26953,15.996695 -0.69825,8.647178 -1.26898,16.016305 -1.2683,16.375836 9.8e-4,0.506065 0.12226,0.724133 0.53711,0.96558 0.29473,0.171538 1.239,0.757536 2.09837,1.302217 l 1.5625,0.99033 2.05079,-0.369925 c 5.09571,-0.919176 11.60963,-1.248745 14.90399,-0.754059 7.50587,1.127094 11.66223,4.530787 12.91013,10.572274 0.63326,3.06582 0.32614,7.34623 -0.72751,10.13935 -1.8852,4.99749 -6.4534,8.12481 -13.08241,8.95601 -6.22178,0.78015 -14.50835,-0.62015 -20.01807,-3.38274 -0.99806,-0.50043 -1.854994,-0.90987 -1.904298,-0.90987 -0.04931,0 -0.08965,1.7567 -0.08965,3.90379 l 0,3.9038 1.385857,0.6979 c 2.59235,1.30549 5.91189,2.20205 10.13758,2.73801 2.77469,0.35193 11.39216,0.23438 13.57422,-0.18515 z m 46.77734,-2.74872 0,-3.01849 0.63477,-0.0968 c 0.34912,-0.0532 1.08224,-0.14628 1.62916,-0.20678 1.21867,-0.1348 2.74841,-0.52541 4.2331,-1.08091 l 1.12016,-0.4191 0,-2.32972 c 0,-1.28134 -0.022,-2.32967 -0.0488,-2.32962 -0.0269,5e-5 -0.52221,0.18002 -1.1008,0.39993 -2.91611,1.10835 -6.97637,1.6049 -9.55736,1.16882 -1.80163,-0.3044 -3.87105,-1.32505 -4.82299,-2.37873 -0.84245,-0.9325 -1.70891,-2.69823 -2.14236,-4.3659 -0.72793,-2.80061 -0.72271,-8.24798 0.0106,-11.09787 0.47291,-1.8378 1.36207,-3.531123 2.42977,-4.627295 2.51779,-2.584916 7.05457,-3.201609 12.10693,-1.645719 0.91309,0.281188 1.77935,0.525372 1.92502,0.542631 0.17092,0.02025 0.52407,-0.717041 0.99563,-2.078607 l 0.73076,-2.109986 -0.54461,-0.281629 c -0.84255,-0.4357 -4.21313,-1.248702 -5.84117,-1.408924 l -1.46485,-0.144162 -0.0547,-2.490235 -0.0547,-2.490234 -2.14261,0 -2.1426,0 0,2.595978 0,2.595979 -1.41601,0.32941 c -0.77881,0.181176 -2.15799,0.695524 -3.06483,1.142994 -5.14678,2.539604 -7.70639,8.437969 -7.36352,16.968449 0.35613,8.86046 3.58122,13.6409 10.26621,15.21729 l 1.48049,0.34912 0.0508,2.91015 c 0.0279,1.60059 0.0911,3.02002 0.14035,3.1543 0.0635,0.17313 0.65944,0.24414 2.04885,0.24414 l 1.95925,0 0,-3.01849 z m -83.443046,-1.52252 -0.05305,-3.75977 -18.131172,-0.0498 c -9.972144,-0.0274 -18.102027,-0.12248 -18.066406,-0.21127 0.03562,-0.0888 4.415352,-4.42544 9.732735,-9.63702 11.916269,-11.67917 15.178048,-15.238548 18.403248,-20.082338 2.241644,-3.366627 3.498777,-6.14848 4.407806,-9.753834 0.47359,-1.878334 0.518924,-2.385326 0.50751,-5.675853 -0.01455,-4.197106 -0.285232,-5.544391 -1.707834,-8.500801 -3.358478,-6.979486 -10.705635,-10.588998 -20.731824,-10.185127 -5.589276,0.225145 -10.348932,1.672481 -15.264729,4.641762 -1.78851,1.08031 -4.755885,3.242244 -4.753197,3.463025 0.0022,0.182498 4.052559,5.389561 4.241211,5.452444 0.08388,0.02796 0.811508,-0.439391 1.616955,-1.038557 5.509953,-4.09882 10.559879,-5.787899 16.405854,-5.487365 3.742935,0.192418 6.166267,1.093215 8.29298,3.08265 2.418791,2.26266 3.387375,4.489024 3.566365,8.197568 0.338131,7.005803 -2.37232,12.664456 -10.002418,20.882213 -0.947531,1.020508 -6.982457,7.186993 -13.410949,13.703293 l -11.688166,11.84782 0,3.43538 0,3.43538 23.344061,0 23.344062,0 -0.05305,-3.75976 z"
       style="fill:#ffffff;fill-opacity:1;stroke-width:0.2;stroke-miterlimit:4;stroke-dasharray:none" /><path
       transform="translate(-108.85619,-94.40071)"
       id="path4886"
       d="m 96.751861,197.07988 c -4.629844,-0.20628 -11.119649,-0.97379 -11.256828,-1.33128 -0.04924,-0.12832 0.134298,-1.46876 0.407867,-2.97875 0.664494,-3.66775 0.683845,-3.49364 -0.406479,-3.65714 -0.497133,-0.0745 -1.008758,-0.17579 -1.136947,-0.22499 -0.162453,-0.0623 -0.40109,0.90406 -0.787611,3.18954 -0.304998,1.80344 -0.57994,3.31115 -0.610981,3.35048 -0.261869,0.33173 -13.029352,-3.12431 -13.625221,-3.68823 -0.176472,-0.167 -0.123308,-0.34361 1.222243,-4.06007 l 0.799425,-2.20804 -0.643627,-0.26893 c -1.691172,-0.70662 -1.511099,-0.87632 -2.766869,2.60759 l -1.126963,3.12657 -1.000802,-0.39139 c -2.543311,-0.99462 -4.997065,-2.11212 -8.375541,-3.81445 l -3.663805,-1.84608 0.475971,-0.81892 c 2.042558,-3.51428 2.807408,-4.92537 2.734033,-5.0441 -0.07449,-0.12053 -1.808086,-1.14592 -1.937375,-1.14592 -0.02681,0 -0.71878,1.16455 -1.537707,2.58789 -0.818928,1.42334 -1.568336,2.711 -1.66535,2.86146 -0.141037,0.21874 -0.567996,0.0315 -2.130273,-0.934 -4.138012,-2.55743 -9.696274,-6.73741 -9.531153,-7.16771 0.05261,-0.13709 0.98716,-1.30642 2.076787,-2.59852 l 1.981139,-2.34927 -0.726043,-0.64328 c -0.399324,-0.35381 -0.826512,-0.70255 -0.949307,-0.77499 -0.134388,-0.0793 -1.06497,0.8737 -2.337773,2.39404 l -2.114514,2.52574 -1.005414,-0.83056 c -1.304484,-1.07764 -7.207773,-6.98139 -8.286646,-8.28731 l -0.833977,-1.00949 2.542418,-2.15276 2.54242,-2.15276 -0.730908,-0.87804 c -0.402,-0.48292 -0.774854,-0.8819 -0.828565,-0.88663 -0.05371,-0.005 -1.196289,0.91078 -2.539062,2.03447 -1.342774,1.1237 -2.50358,2.04481 -2.579572,2.04693 -0.478682,0.0134 -8.162616,-10.83538 -8.162616,-11.52457 0,-0.0819 1.164551,-0.81809 2.587891,-1.63606 1.42334,-0.81796 2.700128,-1.55905 2.837307,-1.64685 0.192505,-0.12322 0.133222,-0.36754 -0.259808,-1.07075 -0.280074,-0.50111 -0.58205,-0.95611 -0.671058,-1.01112 -0.08901,-0.055 -1.43447,0.63866 -2.989916,1.54149 l -2.828085,1.64151 -1.169613,-2.1781 c -2.334092,-4.34664 -5.053264,-10.68882 -4.671818,-10.89652 0.127329,-0.0693 1.533883,-0.58911 3.125676,-1.15507 2.651453,-0.94272 2.885339,-1.0642 2.788876,-1.44854 -0.128747,-0.51297 -0.685012,-1.86156 -0.767853,-1.86156 -0.03302,0 -1.372172,0.4824 -2.975895,1.07201 -1.603723,0.58962 -3.01185,1.07301 -3.129171,1.07422 -0.2158284,0.002 -1.6309855,-4.40339 -2.508797,-7.8103 -0.5994848,-2.32668 -1.3466098,-5.86444 -1.2539623,-5.93771 0.038401,-0.0304 1.5083533,-0.30408 3.2665602,-0.60824 l 3.1967401,-0.55301 -0.125382,-1.0668 c -0.06896,-0.58674 -0.163173,-1.12795 -0.209362,-1.20269 -0.04619,-0.0747 -1.4283,0.1086 -3.0713582,0.4074 -1.6430579,0.29881 -3.1261506,0.54764 -3.2957618,0.55295 -0.2499243,0.008 -0.3711634,-0.48092 -0.639555,-2.57823 -0.3980797,-3.11074 -0.6402957,-5.83553 -0.816014,-9.17968 l -0.1308491,-2.49024 3.4181043,0 3.4181038,0 0,-1.17187 0,-1.171878 -3.4181038,0 -3.4181043,0 0.1264589,-2.490234 C 4.8612129,93.130581 5.5345645,86.406575 5.8218806,85.57312 c 0.049861,-0.144639 1.0333047,-0.03824 3.0700301,0.332133 1.6481673,0.299719 3.1403503,0.549291 3.3159603,0.554607 0.242973,0.0073 0.351865,-0.251037 0.455562,-1.081 0.07495,-0.599865 0.09544,-1.131498 0.04553,-1.181406 -0.04991,-0.04991 -1.3096,-0.307086 -2.7993122,-0.571506 -3.9934101,-0.708816 -3.6487307,-0.56966 -3.5004987,-1.413236 0.5027301,-2.860998 3.1925881,-12.56275 3.5933139,-12.96033 0.07057,-0.07001 1.518663,0.382754 3.21799,1.006148 2.033195,0.745875 3.117344,1.056545 3.170572,0.908547 0.527966,-1.467967 0.657254,-1.975978 0.530635,-2.085016 -0.08265,-0.07117 -1.468627,-0.599396 -3.079955,-1.173834 -1.611328,-0.574437 -2.952576,-1.057886 -2.98055,-1.074332 -0.246946,-0.14517 5.024289,-11.541404 5.847777,-12.642701 0.238578,-0.319064 0.461271,-0.226992 2.990621,1.236471 1.503067,0.869662 2.800861,1.596082 2.883986,1.614265 0.08313,0.01818 0.416608,-0.421351 0.741072,-0.976744 l 0.589934,-1.009804 -1.813764,-1.064996 c -0.99757,-0.58575 -2.273923,-1.31786 -2.83634,-1.626915 -0.562417,-0.309054 -1.023843,-0.628796 -1.025391,-0.710539 -0.01095,-0.578119 6.3122,-9.692859 8.001317,-11.533804 0.08023,-0.08744 1.247426,0.76949 2.593766,1.904297 1.34634,1.134806 2.534228,2.063285 2.63975,2.063285 0.105523,0 0.506789,-0.38433 0.891703,-0.854067 l 0.699844,-0.854064 -2.522336,-2.106117 c -2.298528,-1.919241 -2.503133,-2.142405 -2.305932,-2.515077 0.3361,-0.635158 9.4695,-9.687839 9.760403,-9.67414 0.142011,0.0067 1.168601,1.10532 2.28131,2.441406 1.112709,1.336086 2.079506,2.429008 2.148438,2.428719 0.06893,-1.95e-4 0.5049,-0.329881 0.96882,-0.732422 l 0.84349,-0.731895 -2.155832,-2.574238 -2.155832,-2.574236 2.288904,-1.735416 c 3.022823,-2.29186 4.364582,-3.232556 7.14918,-5.012227 l 2.321213,-1.483516 1.543172,2.683107 c 0.848744,1.475709 1.627037,2.766973 1.729539,2.869475 0.165394,0.165394 1.49448,-0.408724 2.013457,-0.869742 0.08963,-0.07962 -0.584109,-1.426755 -1.497203,-2.993627 l -1.660174,-2.848857 0.618299,-0.381011 c 2.191,-1.35015 12.120383,-5.869292 12.362949,-5.626727 0.04207,0.04207 0.570055,1.430409 1.173293,3.085193 0.60324,1.654783 1.112783,3.028584 1.132318,3.052891 0.03515,0.04374 2.116303,-0.718726 2.208518,-0.809125 0.02631,-0.0258 -0.467232,-1.44627 -1.096768,-3.15661 L 69.070044,10.004678 71.338687,9.2574641 C 73.969989,8.3908017 80.57799,6.6726154 82.009105,6.4829842 l 0.9799,-0.1298426 0.564309,3.259381 0.56431,3.2593814 0.873338,-0.130966 c 1.182215,-0.177284 1.409336,-0.282491 1.409336,-0.652836 0,-0.173904 -0.229781,-1.61929 -0.510625,-3.2119684 -0.280844,-1.5926782 -0.466404,-2.939998 -0.412359,-2.994044 0.30908,-0.3090807 9.912892,-1.2460977 12.788219,-1.2477107 l 1.416015,-7.944e-4 0,3.3203126 0,3.3203129 1.171872,0 1.17188,0 0,-3.3502655 0,-3.3502652 3.07617,0.1316632 c 3.10249,0.1327898 7.10626,0.5053633 9.82456,0.9142312 l 1.47495,0.2218519 -0.57298,3.2260494 c -0.44673,2.515209 -0.51935,3.259201 -0.32955,3.376503 0.25531,0.157785 1.97813,0.43624 2.07844,0.335931 0.0319,-0.03194 0.29496,-1.416507 0.58449,-3.0768102 0.28953,-1.6603031 0.59597,-3.0975982 0.68097,-3.1939891 0.29994,-0.3401165 6.02968,0.9940866 10.95002,2.5497723 l 2.86472,0.9057537 -0.78465,2.1684593 c -0.43155,1.192652 -0.94491,2.624087 -1.14078,3.180968 l -0.35615,1.012509 1.14251,0.385832 1.14252,0.385832 0.86632,-2.374904 c 0.47648,-1.306197 0.98402,-2.704494 1.12787,-3.107326 0.14385,-0.402832 0.32841,-0.732421 0.41014,-0.732421 0.71088,0 11.9704,5.289823 12.60257,5.920801 0.17902,0.178691 0.0124,0.602331 -0.7302,1.855975 -0.52919,0.893439 -1.27198,2.178427 -1.65064,2.855531 l -0.68847,1.231098 1.06528,0.557745 c 0.58591,0.30676 1.0988,0.515912 1.13977,0.464782 0.041,-0.05113 0.32204,-0.532417 0.62462,-1.069526 0.30258,-0.53711 1.02244,-1.786526 1.59969,-2.776481 l 1.04955,-1.799919 2.19272,1.384781 c 2.55557,1.613939 5.17032,3.451077 7.72598,5.428318 1.58254,1.224373 1.78498,1.446713 1.5625,1.716131 -0.14058,0.170234 -1.11018,1.327656 -2.15467,2.572047 l -1.89908,2.262529 0.82486,0.724922 c 0.45367,0.398707 0.91275,0.723106 1.02017,0.720885 0.10742,-0.0022 1.09902,-1.097108 2.20357,-2.43308 1.10454,-1.335971 2.0728,-2.429039 2.15169,-2.429039 0.49125,0 10.00021,9.498996 10.00021,9.98973 0,0.07331 -1.07666,1.029479 -2.39258,2.124828 -1.31592,1.09535 -2.42121,2.067612 -2.45619,2.160582 -0.0811,0.215469 1.17055,1.733008 1.4308,1.734754 0.10742,7.82e-4 1.28878,-0.920547 2.62525,-2.04726 1.33646,-1.126714 2.45429,-2.048572 2.48407,-2.048572 0.27185,0 4.96277,6.49903 6.86508,9.511219 l 1.37849,2.18277 -2.77019,1.602127 c -1.52361,0.881167 -2.81204,1.639023 -2.86317,1.684119 -0.0511,0.0451 0.15752,0.5604 0.46366,1.145119 l 0.55661,1.063123 1.09885,-0.62827 c 0.60437,-0.34555 1.88615,-1.088445 2.84842,-1.650879 1.17264,-0.685398 1.8231,-0.961582 1.97255,-0.837545 0.59178,0.491131 6.18907,12.533294 5.92922,12.75626 -0.0446,0.03824 -1.36451,0.530284 -2.9332,1.093436 -1.56869,0.56315 -2.94975,1.084223 -3.06903,1.157937 -0.15203,0.09396 -0.0963,0.461348 0.18652,1.229055 l 0.40338,1.095031 1.59143,-0.584072 c 2.81322,-1.032478 4.70737,-1.694488 4.74067,-1.656863 0.35995,0.406756 3.19468,10.84633 3.49454,12.8695 0.15878,1.071353 0.55019,0.891088 -3.49297,1.608734 -1.48971,0.26442 -2.74875,0.520942 -2.79785,0.570049 -0.12059,0.12059 0.13257,1.757731 0.31827,2.058199 0.11442,0.185145 0.88676,0.110299 3.38263,-0.327799 l 3.23435,-0.567722 0.21544,1.483158 c 0.40009,2.754256 0.78279,6.886047 0.91751,9.905795 l 0.13397,3.003144 -3.34983,0 -3.34983,0 0,1.171878 0,1.17187 3.32031,0 3.32032,0 0,1.18411 c 0,2.77897 -0.96963,12.74125 -1.26927,13.04089 -0.0446,0.0446 -1.51303,-0.178 -3.26329,-0.49456 -2.18367,-0.39495 -3.22141,-0.50977 -3.30697,-0.36589 -0.0686,0.11532 -0.18464,0.65621 -0.25792,1.20199 l -0.13324,0.99232 3.23644,0.55499 c 2.74691,0.47105 3.23643,0.60692 3.23643,0.89828 0,1.55665 -3.30724,13.45662 -3.73987,13.45662 -0.0849,0 -1.48597,-0.4834 -3.11352,-1.07422 -1.62756,-0.59082 -2.98626,-1.07421 -3.01934,-1.07421 -0.087,0 -0.89387,2.19079 -0.82749,2.24682 0.0306,0.0259 1.40961,0.54058 3.06439,1.14382 1.65478,0.60324 3.04852,1.13663 3.0972,1.1853 0.21995,0.21995 -3.5856,8.58204 -5.35383,11.7642 l -0.6687,1.20342 -2.84747,-1.65936 c -1.5661,-0.91265 -2.91351,-1.58603 -2.99423,-1.49639 -0.0807,0.0896 -0.37468,0.56022 -0.65324,1.04576 l -0.50647,0.8828 2.91008,1.67084 2.91007,1.67084 -1.41842,2.23152 c -1.71144,2.69249 -3.40762,5.10519 -5.36448,7.63056 l -1.45942,1.88341 -2.55646,-2.14118 -2.55645,-2.14118 -0.73242,0.82 c -0.40284,0.45099 -0.73243,0.89203 -0.73243,0.98008 0,0.11513 3.85657,3.45824 4.86122,4.21401 0.19856,0.14936 -1.35798,1.86355 -4.94591,5.44687 -2.15557,2.15279 -4.18899,4.10305 -4.51872,4.33389 l -0.5995,0.41972 -2.11764,-2.52892 c -2.36479,-2.82407 -2.00827,-2.68137 -3.45761,-1.38394 l -0.52426,0.46931 2.15812,2.54981 c 1.73788,2.05329 2.10513,2.59053 1.88597,2.75897 -4.84718,3.72546 -10.93149,7.93511 -11.44663,7.91977 -0.0785,-0.002 -0.78472,-1.13471 -1.56942,-2.51638 -1.98597,-3.49683 -1.70237,-3.24953 -2.92341,-2.54923 l -1.02982,0.59063 0.48211,0.8236 c 2.16267,3.69449 2.82241,4.9301 2.69815,5.05322 -0.59752,0.59204 -12.66623,6.21947 -12.83112,5.98292 -0.0216,-0.031 -0.50763,-1.37466 -1.08011,-2.98598 -0.57248,-1.61133 -1.10737,-3.00573 -1.18863,-3.09866 -0.13292,-0.15201 -1.85817,0.36006 -2.15866,0.6407 -0.0673,0.0628 0.38328,1.47651 1.00119,3.14155 0.6179,1.66504 1.06843,3.08677 1.00118,3.15941 -0.51055,0.55141 -13.32545,3.91737 -13.65596,3.58686 -0.0762,-0.0762 -1.19799,-5.98699 -1.20913,-6.37094 -0.002,-0.0621 -0.53063,-0.028 -1.17516,0.0758 -0.87527,0.14096 -1.17,0.26841 -1.16448,0.50358 0.004,0.17317 0.25222,1.65959 0.55145,3.30315 0.29924,1.64357 0.49279,3.02 0.43011,3.05873 -0.45125,0.27889 -11.07246,1.25066 -13.9284,1.27435 -0.31261,0.003 -0.3418,-0.28905 -0.3418,-3.41513 l 0,-3.41797 -1.17188,0 -1.171872,0 0,3.41797 0,3.41797 -0.830078,-0.0376 c -0.456543,-0.0207 -1.401367,-0.0631 -2.099609,-0.0942 z m -2.640719,-4.86196 c 0.07706,-1.02784 0.109484,-1.89484 0.07206,-1.92667 -0.03743,-0.0318 -0.527125,-0.11644 -1.088211,-0.18802 -1.181686,-0.15075 -1.123659,-0.24946 -1.329211,2.26097 l -0.122832,1.50015 0.650162,0.0799 c 1.810295,0.22254 1.661316,0.364 1.818037,-1.72635 z m 15.572418,1.67348 0.57819,0 -0.1241,-1.51367 c -0.20859,-2.54421 -0.15312,-2.44894 -1.33329,-2.29006 -0.55954,0.0753 -1.04797,0.16497 -1.0854,0.1992 -0.0374,0.0342 -0.004,0.91197 0.0735,1.95052 l 0.14157,1.88827 0.58566,-0.11713 c 0.32212,-0.0644 0.84585,-0.11713 1.16385,-0.11713 z m -31.330281,-4.17792 c 0.236408,-0.90137 0.429832,-1.72756 0.429832,-1.83598 0,-0.10843 -0.449354,-0.30494 -0.998563,-0.43669 -1.183221,-0.28385 -1.177185,-0.28961 -1.632191,1.5559 -0.17376,0.70477 -0.358981,1.42579 -0.411602,1.60226 -0.07107,0.23836 0.09432,0.37127 0.643264,0.51692 1.498336,0.39757 1.4969,0.39859 1.96926,-1.40241 z m 46.793891,1.41062 c 0.44215,-0.12553 0.8671,-0.28101 0.94434,-0.34551 0.1179,-0.0985 -0.68809,-3.45699 -0.87431,-3.64321 -0.10482,-0.10482 -2.09784,0.5274 -2.10325,0.66719 -0.0168,0.43505 0.9067,3.54977 1.05253,3.54977 0.0972,0 0.53854,-0.10271 0.98069,-0.22824 z m -18.12094,-4.07193 c 11.46724,-0.90425 21.592,-3.626 31.62016,-8.50017 20.93099,-10.17347 36.98498,-28.55762 44.3288,-50.76292 1.70142,-5.14452 3.06826,-11.48289 3.85619,-17.88206 0.40395,-3.28071 0.33763,-15.388927 -0.10377,-18.94531 C 184.33,71.644237 176.18626,54.520079 162.86514,40.785186 142.24794,19.527584 112.55889,10.356584 83.496974,16.268219 53.390659,22.3923 28.667474,44.368507 18.912722,73.676554 16.06114,82.244101 14.791847,89.662106 14.58485,98.969522 c -0.229069,10.299858 1.143885,19.643078 4.259597,28.987388 4.94097,14.81842 13.405083,27.52751 25.308699,38.00166 10.709398,9.42334 24.342742,16.30572 38.243246,19.30593 4.291443,0.92624 7.840959,1.42994 13.085937,1.857 1.908307,0.15537 9.253721,0.11126 11.543901,-0.0693 z m -43.806971,-2.50779 c 0.385795,-0.84398 0.727615,-1.64258 0.759602,-1.77466 0.03199,-0.13208 -0.391782,-0.44224 -0.941706,-0.68925 l -0.999859,-0.44912 -0.344812,0.7101 c -0.189647,0.39056 -0.551186,1.17061 -0.803418,1.73346 l -0.458606,1.02336 0.924373,0.48122 c 0.508404,0.26467 0.978059,0.48531 1.043676,0.49031 0.06562,0.005 0.434955,-0.68143 0.82075,-1.52542 z m 77.339211,0.92457 c 0.45226,-0.22805 0.84982,-0.43868 0.88347,-0.46807 0.0511,-0.0446 -1.46473,-3.19646 -1.62276,-3.37428 -0.0282,-0.0318 -0.47944,0.14226 -1.00269,0.38673 -0.52324,0.24447 -0.97518,0.45543 -1.0043,0.46879 -0.14741,0.0676 1.5305,3.40147 1.71195,3.40147 0.11662,0 0.58207,-0.18659 1.03433,-0.41464 z m -90.983938,-9.16203 c 0.545371,-0.79817 0.871203,-1.45056 0.761422,-1.52452 -1.040736,-0.70116 -1.652051,-1.01821 -1.794041,-0.93046 -0.09361,0.0578 -0.621222,0.75762 -1.172478,1.55504 l -1.002282,1.44985 0.917317,0.59671 c 0.573144,0.37282 0.996,0.53141 1.127029,0.42266 0.115342,-0.0957 0.638705,-0.8019 1.163033,-1.56928 z m 105.771078,0.34555 c 0,-0.14591 -1.5314,-2.438 -1.97128,-2.95048 -0.12637,-0.14723 -1.93497,0.97313 -1.93497,1.19864 0,0.046 0.48659,0.77411 1.08131,1.61802 l 1.08131,1.53439 0.87182,-0.61452 c 0.47949,-0.33798 0.87181,-0.6917 0.87181,-0.78605 z m -118.303146,-10.25839 1.315281,-1.32543 -0.785418,-0.76695 -0.785418,-0.76694 -1.363695,1.35325 -1.363693,1.35324 0.721746,0.73914 c 0.396959,0.40652 0.772183,0.73913 0.83383,0.73913 0.06165,0 0.703961,-0.59644 1.427367,-1.32544 z M 167.6503,166.06291 c 0,-0.11557 -0.57192,-0.77697 -1.27092,-1.46977 l -1.27093,-1.25962 -0.82462,0.82463 -0.82463,0.82462 1.35641,1.36689 1.35642,1.36689 0.73913,-0.72175 c 0.40653,-0.39695 0.73914,-0.81631 0.73914,-0.93189 z M 26.059087,154.79521 c 0.477705,-0.34079 1.154949,-0.82924 1.504988,-1.08543 l 0.636436,-0.46581 -0.59699,-0.86769 c -0.328344,-0.47723 -0.664987,-0.86769 -0.748094,-0.86769 -0.08311,0 -0.820512,0.46594 -1.638678,1.03542 l -1.487574,1.03543 0.596957,0.9177 c 0.328324,0.50473 0.657131,0.9177 0.730678,0.9177 0.07355,0 0.524572,-0.27884 1.002277,-0.61963 z m 151.405663,-0.34349 c 0.29541,-0.4177 0.53711,-0.83727 0.53711,-0.93238 0,-0.15686 -2.80098,-2.20607 -3.01537,-2.20607 -0.15941,0 -1.323,1.78142 -1.22657,1.87785 0.32781,0.32781 2.81303,2.01397 2.97241,2.01671 0.10742,0.002 0.43701,-0.3384 0.73242,-0.75611 z M 18.550526,140.64487 c 0.847648,-0.3891 1.562186,-0.72505 1.587862,-0.74655 0.09174,-0.0768 -0.810379,-2.06161 -0.93704,-2.06161 -0.07108,0 -0.890098,0.35152 -1.820043,0.78116 l -1.690808,0.78115 0.494909,0.97666 c 0.2722,0.53716 0.568942,0.97666 0.659426,0.97666 0.09048,0 0.858046,-0.31836 1.705694,-0.70747 z m 166.993164,-0.21936 c 0.20258,-0.50975 0.39686,-0.99085 0.43173,-1.06912 0.0586,-0.13142 -3.29481,-1.78093 -3.3906,-1.66782 -0.15977,0.18866 -0.87202,1.73222 -0.87202,1.8898 0,0.15907 2.9287,1.69852 3.3426,1.75701 0.066,0.009 0.2857,-0.40011 0.48829,-0.90987 z M 14.65844,125.25369 c 0.01952,-0.0113 -0.105779,-0.52804 -0.278435,-1.14835 -0.191621,-0.68845 -0.402876,-1.09372 -0.542251,-1.04023 -0.125581,0.0482 -0.9527,0.28307 -1.838043,0.52196 l -1.609713,0.43435 0.127287,0.6785 c 0.07001,0.37317 0.20341,0.87871 0.296449,1.12342 l 0.169163,0.44493 1.820028,-0.49703 c 1.001016,-0.27337 1.835998,-0.50627 1.855515,-0.51755 z m 176.40265,0.0105 c 0.11824,-0.46956 0.26204,-0.97639 0.31956,-1.12628 0.0778,-0.20276 -0.34288,-0.38927 -1.64326,-0.72854 -0.96131,-0.2508 -1.83093,-0.40465 -1.9325,-0.34188 -0.20294,0.12543 -0.69046,1.87657 -0.55903,2.00801 0.0719,0.0719 3.1542,0.98091 3.47696,1.02544 0.0678,0.009 0.22003,-0.36718 0.33827,-0.83675 z m -180.39316,-15.26917 1.1231,-0.11613 -0.124838,-1.10898 c -0.06866,-0.60995 -0.134604,-1.12254 -0.146538,-1.1391 -0.04184,-0.0581 -3.7211082,0.3441 -3.7914314,0.41442 -0.039094,0.0391 -0.010135,0.55886 0.064352,1.15504 l 0.1354315,1.08396 0.8084113,-0.0865 c 0.4446264,-0.0476 1.3138065,-0.1388 1.9315125,-0.20267 z m 183.22645,-0.33215 c 0.0648,-0.2417 0.11897,-0.75652 0.12044,-1.14405 l 0.003,-0.7046 -1.20053,-0.12548 c -0.66029,-0.069 -1.53919,-0.12548 -1.95312,-0.12548 l -0.7526,0 0,1.0705 c 0,1.20307 0.0116,1.21141 1.85546,1.33349 0.53711,0.0356 1.16407,0.0805 1.39324,0.0999 0.28359,0.024 0.45429,-0.10515 0.53444,-0.40425 z M 11.656195,93.165505 c 0.06338,-0.614084 0.09765,-1.132424 0.07615,-1.151863 -0.02149,-0.01943 -0.886429,-0.09803 -1.9220758,-0.174645 L 7.9272778,91.699702 7.7874843,92.71612 c -0.076886,0.559031 -0.0645,1.091283 0.027526,1.182781 0.092026,0.0915 0.6946629,0.198514 1.3391941,0.237811 2.69653,0.164408 2.371775,0.290471 2.501991,-0.971207 z m 180.891135,0.792848 1.51847,-0.128358 -0.10982,-1.06408 c -0.0604,-0.585244 -0.14848,-1.102736 -0.19573,-1.149984 -0.0473,-0.04725 -0.8876,-0.02538 -1.86746,0.04859 l -1.78155,0.13449 0,1.143851 c 0,1.312102 -0.18087,1.236707 2.43609,1.015495 z M 14.330248,77.77702 c 0.14188,-0.591421 0.221836,-1.103757 0.177679,-1.138525 -0.09628,-0.0758 -3.345826,-0.917574 -3.527602,-0.913799 -0.190163,0.0039 -0.621576,1.955506 -0.467056,2.112791 0.131735,0.13409 2.932592,0.971143 3.346069,0.99999 0.11712,0.0082 0.32903,-0.469033 0.47091,-1.060457 z m 175.269212,0.455055 c 0.8723,-0.233721 1.62207,-0.452906 1.66617,-0.487078 0.11277,-0.08738 -0.37723,-2.212975 -0.51014,-2.212975 -0.29598,0 -3.3032,0.864633 -3.44979,0.991883 -0.2092,0.181584 0.27024,2.133117 0.52404,2.133117 0.10105,0 0.89742,-0.191226 1.76972,-0.424947 z M 19.599453,63.235116 c 0.217027,-0.425408 0.394595,-0.890559 0.394595,-1.033668 0,-0.240947 -3.25129,-1.853762 -3.398845,-1.686008 -0.245466,0.279065 -0.886603,2.033651 -0.760798,2.082059 0.08565,0.03296 0.770971,0.356383 1.522924,0.718721 0.751953,0.362336 1.475265,0.666347 1.607359,0.67558 0.132094,0.0092 0.417738,-0.331276 0.634765,-0.756684 z M 185.76553,62.504665 c 0.31895,-0.131129 0.32285,-0.111559 -0.24581,-1.233748 l -0.48994,-0.966867 -1.02373,0.454013 c -0.56304,0.249709 -1.33993,0.621805 -1.7264,0.826879 l -0.70268,0.372862 0.45357,1.022726 0.45356,1.022727 1.51865,-0.69911 c 0.83525,-0.384509 1.62851,-0.744277 1.76278,-0.799482 z M 27.40654,49.666753 c 0.327426,-0.475897 0.59374,-0.937323 0.591811,-1.025391 -0.0031,-0.141377 -0.415239,-0.44326 -2.564358,-1.878328 l -0.525678,-0.351018 -0.623144,0.905711 c -0.346076,0.503004 -0.548463,0.979506 -0.455182,1.071684 0.152867,0.151055 2.849438,2.104654 2.941785,2.13125 0.0217,0.0063 0.30734,-0.37801 0.634766,-0.853908 z m 148.45724,0.05033 c 0.4777,-0.340793 1.15494,-0.829239 1.50498,-1.085432 l 0.63644,-0.465807 -0.59699,-0.867693 c -0.32835,-0.47723 -0.67923,-0.867693 -0.77975,-0.867693 -0.10052,0 -0.83664,0.469156 -1.63581,1.04257 l -1.45304,1.04257 0.6198,0.904256 c 0.34089,0.497342 0.6684,0.907092 0.7278,0.910555 0.0594,0.0035 0.49886,-0.272533 0.97657,-0.613326 z M 38.15811,36.766038 c 0,-0.115578 -0.571916,-0.776975 -1.270921,-1.46977 l -1.270924,-1.259625 -0.824627,0.824627 -0.824627,0.824627 1.356416,1.366889 1.356414,1.366889 0.739135,-0.721747 c 0.406523,-0.396959 0.739134,-0.81631 0.739134,-0.93189 z m 128.18071,0.136385 1.31476,-1.324914 -0.83802,-0.822454 -0.83802,-0.822453 -1.35366,1.36411 -1.35365,1.364109 0.76483,0.783256 c 0.42065,0.430793 0.81527,0.783258 0.87691,0.783258 0.0617,0 0.70373,-0.596211 1.42685,-1.324912 z M 49.490423,27.556848 c 0.427385,-0.282828 0.777062,-0.59667 0.777062,-0.697422 0,-0.153996 -1.510919,-2.425099 -1.969371,-2.960212 -0.132365,-0.1545 -1.936879,0.934347 -1.936879,1.168718 0,0.214403 2.032237,3.003153 2.188479,3.003153 0.09001,0 0.513324,-0.231407 0.940709,-0.514237 z m 104.807387,-1.087216 1.05114,-1.487299 -0.8214,-0.604063 c -0.45177,-0.332232 -0.91394,-0.601214 -1.02706,-0.597734 -0.22052,0.0068 -2.12548,2.718347 -2.09775,2.98599 0.0232,0.223625 1.46354,1.285578 1.6727,1.233246 0.0942,-0.02356 0.64424,-0.712127 1.22237,-1.53014 z M 63.044261,19.679588 c 0.492305,-0.211026 0.8951,-0.422002 0.8951,-0.468834 0,-0.194641 -1.552975,-3.444357 -1.645991,-3.444357 -0.332259,0 -1.869634,0.898649 -1.869634,1.092866 0,0.36231 1.390683,3.204009 1.567992,3.204009 0.08659,0 0.56023,-0.172658 1.052533,-0.383684 z m 77.487049,-1.29224 c 0.43196,-0.921759 0.75584,-1.701971 0.71976,-1.733805 -0.17347,-0.153027 -1.73125,-0.887146 -1.8825,-0.887146 -0.18528,0 -1.60108,2.89405 -1.60108,3.272769 0,0.198567 1.37849,0.962067 1.81931,1.007649 0.0875,0.0091 0.51256,-0.737709 0.94451,-1.659467 z M 77.806548,14.325859 c 0.483399,-0.144504 0.866203,-0.321241 0.850678,-0.39275 -0.01553,-0.07151 -0.220256,-0.907171 -0.454957,-1.857025 l -0.426729,-1.727008 -1.137146,0.286448 -1.137147,0.286448 0.469057,1.752713 c 0.25798,0.963993 0.469057,1.790316 0.469057,1.836275 0,0.147448 0.465607,0.08441 1.367187,-0.185101 z m 47.795142,-1.558951 c 0.25861,-0.951478 0.43014,-1.770023 0.38117,-1.81899 -0.049,-0.04897 -0.54285,-0.208747 -1.09752,-0.355066 -0.75976,-0.200421 -1.02691,-0.209419 -1.08315,-0.03648 -0.41917,1.288916 -0.88192,3.318599 -0.77992,3.420835 0.18745,0.187864 1.51503,0.585781 1.83542,0.550128 0.17068,-0.01899 0.45088,-0.68199 0.744,-1.760427 z M 94.078226,11.176553 c -0.0203,-0.214843 -0.09372,-1.071777 -0.163149,-1.9042966 l -0.126232,-1.5136718 -0.715758,0.00267 c -0.393666,0.00146 -0.915123,0.056084 -1.158793,0.1213722 -0.475004,0.1272713 -0.473103,0.080787 -0.121084,2.9614802 l 0.102576,0.839426 1.109678,-0.05818 c 0.974883,-0.05111 1.105194,-0.105626 1.072762,-0.448801 z M 109.91683,9.8755273 c 0.15514,-2.0551552 0.12181,-2.1093693 -1.29973,-2.1139519 -0.9168,-0.00296 -0.92775,0.00449 -0.92913,0.6317748 -7.8e-4,0.3491211 -0.0574,1.2280273 -0.1259,1.9531248 l -0.12451,1.31836 1.1721,0 1.17209,0 0.13508,-1.7893077 z"
       style="fill:#ffffff;fill-opacity:1;stroke-width:0.2;stroke-miterlimit:4;stroke-dasharray:none" /></g></svg>